<svg width="26" height="25" viewBox="0 0 26 25" xmlns="http://www.w3.org/2000/svg">
    <title>
        favourites-filled-star-symbol
    </title>
    <path d="M24.869 8.523l-7.16-.685a1.24 1.24 0 0 1-1.026-.768L14.118.779c-.41-1.039-1.867-1.039-2.277 0l-2.544 6.29a1.214 1.214 0 0 1-1.026.77l-7.16.684c-1.067.104-1.498 1.454-.698 2.18L5.81 15.5c.349.311.493.768.39 1.225l-1.62 6.727c-.247 1.059.881 1.93 1.825 1.37l5.97-3.55c.39-.229.862-.229 1.252 0l5.97 3.55c.944.56 2.072-.29 1.826-1.37l-1.6-6.727a1.25 1.25 0 0 1 .39-1.225l5.395-4.797c.78-.726.329-2.076-.738-2.18z" fill-rule="nonzero" fill="#FFF"/>
</svg>
