<?xml version="1.0" encoding="UTF-8"?>
<svg width="52px" height="50px" viewBox="0 0 52 50" version="1.1" xmlns="http://www.w3.org/2000/svg" xmlns:xlink="http://www.w3.org/1999/xlink">
    <!-- Generator: Sketch 47.1 (45422) - http://www.bohemiancoding.com/sketch -->
    <title>bomb copy</title>
    <desc>Created with Sketch.</desc>
    <defs></defs>
    <g id="Page-1" stroke="none" stroke-width="1" fill="none" fill-rule="evenodd">
        <g id="Dekstop" transform="translate(-545.000000, -3601.000000)" fill-rule="nonzero" fill="#000000">
            <g id="результаты-обучения" transform="translate(0.000000, 2861.000000)">
                <g id="ты-научишься" transform="translate(0.000000, 624.000000)">
                    <g id="bomb-copy" transform="translate(545.000000, 116.000000)">
                        <path d="M40.8875529,10.0534616 C36.698954,9.49998117 37.029082,13.3602493 36.2072513,16.2593806 C35.7783533,17.7756242 33.9183642,16.9402537 32.8426303,16.8443026 C31.9494061,16.7640724 31.0647705,16.8394238 30.2907145,17.2373225 C27.0817636,14.4921465 22.9344978,12.8327896 18.4018144,12.8327896 C8.23924182,12.8327896 0,21.1528845 0,31.4163948 C0,41.6804472 8.23977861,50 18.4018144,50 C28.5638501,50 36.8036287,41.679363 36.8036287,31.4163948 C36.8036287,26.7955654 35.1293701,22.5720927 32.3648841,19.3211409 C32.7830462,19.2772311 33.2709914,19.2989149 33.8587802,19.4122131 C35.2989968,19.6892243 36.686071,19.4805172 37.6925586,18.3513305 C38.4811081,17.4666292 38.6679122,16.1894502 38.8133832,15.0570109 C39.0146807,13.4833052 38.9792524,12.1643848 40.8864793,12.4159175 C42.3803753,12.6132406 42.3615875,10.2480741 40.8875529,10.0534616 Z M12.3355122,24.3035485 C9.8737777,26.0767457 8.40511097,28.9552773 8.40511097,32.0034851 C8.40511097,33.200976 7.443714,34.1718706 6.2579374,34.1718706 C5.07216079,34.1718706 4.11076382,33.200976 4.11076382,32.0034851 C4.11076382,27.5572108 6.25256946,23.3586745 9.8415701,20.7728749 C10.8051142,20.0779074 12.1470977,20.3023353 12.8358037,21.2786508 C13.5245096,22.2538822 13.3012035,23.6080389 12.3355122,24.3035485 Z" id="Shape"></path>
                        <path d="M32.6926798,7.29860139 C32.9723081,7.90373253 33.6919071,8.16781995 34.2977685,7.88878418 C34.903075,7.6108557 35.1677232,6.89278152 34.8892045,6.28765038 L32.3070813,0.701398609 C32.027453,0.0962674704 31.3089636,-0.167819952 30.7014378,0.111215815 C30.5039226,0.20256681 30.3413609,0.342084694 30.222075,0.509284697 C29.9807292,0.84977477 29.9241377,1.30542246 30.1116662,1.71124234 L32.6926798,7.29860139 Z" id="Shape"></path>
                        <path d="M40.6872659,7.88432167 C41.2851344,8.16913878 41.9978507,7.90986082 42.2808491,7.30580426 L44.8849839,1.72605382 C45.1674328,1.12144206 44.91191,0.400238496 44.3129425,0.115976583 C43.7788174,-0.138304581 43.1540228,0.0399143138 42.824316,0.510167908 C42.7858502,0.56735341 42.7495824,0.628425305 42.7193593,0.693938793 L40.114675,6.27424443 C39.8327756,6.87830099 40.0882984,7.59950456 40.6872659,7.88432167 Z" id="Shape"></path>
                        <path d="M51.9615925,9.90435969 C51.7990037,9.25610188 51.1682439,8.86992941 50.5528426,9.04020142 L44.8606459,10.6143828 C44.5873696,10.6900593 44.3638762,10.8625571 44.2129387,11.0873606 C44.0217513,11.369478 43.9481361,11.7361749 44.038169,12.0961945 C44.2007578,12.7438959 44.8315176,13.1300683 45.4490373,12.9597963 L51.1391156,11.384502 C51.7555761,11.2153429 52.1241813,10.5515046 51.9615925,9.90435969 Z" id="Shape"></path>
                        <path d="M49.5193103,21.7951034 L44.7907598,18.2225806 C44.2785089,17.8359704 43.5692784,17.9657689 43.2081493,18.5128167 C42.8464991,19.0604216 42.9679177,19.8180437 43.4806897,20.2046539 L48.2092402,23.7771767 C48.72097,24.1643439 49.4296794,24.0339883 49.7918507,23.4869406 C50.1535009,22.9387786 50.0320823,22.1817135 49.5193103,21.7951034 Z" id="Shape"></path>
                    </g>
                </g>
            </g>
        </g>
    </g>
</svg>