<?xml version="1.0" encoding="UTF-8"?>
<svg width="24px" height="24px" viewBox="0 0 24 24" version="1.1" xmlns="http://www.w3.org/2000/svg" xmlns:xlink="http://www.w3.org/1999/xlink">
    <!-- Generator: Sketch 47.1 (45422) - http://www.bohemiancoding.com/sketch -->
    <title>Shape</title>
    <desc>Created with Sketch.</desc>
    <defs></defs>
    <g id="Page-1" stroke="none" stroke-width="1" fill="none" fill-rule="evenodd">
        <g id="Pop-up(заказать-звонок)" transform="translate(-1065.000000, -91.000000)" fill-rule="nonzero" fill="#B5B8C1">
            <g id="cancel-music" transform="translate(1065.000000, 91.000000)">
                <path d="M14.8523645,12.0000563 L23.4092465,3.44316421 C24.1969178,2.65549201 24.1969178,1.37842635 23.4092465,0.590866834 C22.6215753,-0.196805364 21.3446238,-0.196805364 20.5569525,0.590866834 L11.9999577,9.14787165 L3.44296297,0.590754148 C2.6552917,-0.196918049 1.37834021,-0.196918049 0.590668941,0.590754148 C-0.196889647,1.37842635 -0.196889647,2.65549201 0.590668941,3.44305153 L9.14766371,11.9999437 L0.590668941,20.5569485 C-0.196889647,21.3446207 -0.196889647,22.6216863 0.590668941,23.4092459 C1.37834021,24.196918 2.6552917,24.196918 3.44296297,23.4092459 L11.9999577,14.852241 L20.5569525,23.4092459 C21.3445111,24.196918 22.6215753,24.196918 23.4092465,23.4092459 C24.1969178,22.6215737 24.1969178,21.3446207 23.4092465,20.5569485 L14.8523645,12.0000563 Z" id="Shape"></path>
            </g>
        </g>
    </g>
</svg>