<?xml version="1.0" encoding="UTF-8"?>
<svg width="23px" height="20px" viewBox="0 0 23 20" version="1.1" xmlns="http://www.w3.org/2000/svg" xmlns:xlink="http://www.w3.org/1999/xlink">
    <!-- Generator: Sketch 47.1 (45422) - http://www.bohemiancoding.com/sketch -->
    <title>key</title>
    <desc>Created with Sketch.</desc>
    <defs></defs>
    <g id="Page-1" stroke="none" stroke-width="1" fill="none" fill-rule="evenodd">
        <g id="Стр.-курса_1" transform="translate(-526.000000, -3910.000000)" stroke="#FB4848" stroke-width="0.5" fill="#FB4848" fill-rule="nonzero">
            <g id="программа-обучения" transform="translate(103.000000, 2475.000000)">
                <g id="button_4(купить)-copy" transform="translate(405.000000, 1415.000000)">
                    <g id="key" transform="translate(29.500000, 30.000000) rotate(-270.000000) translate(-29.500000, -30.000000) translate(20.500000, 19.500000)">
                        <path d="M8.52707842,1.47320887 C7.58093581,0.52701809 6.3247339,0.00391311323 4.99015632,0 C4.98499127,0 4.98033491,0 4.97516986,0 C3.64454432,0 2.39522914,0.516726603 1.45620804,1.45575639 C0.513508797,2.39850363 -0.00342627224,3.65355643 1.70920848e-05,4.98992373 C0.00393000609,6.32456926 0.52700835,7.58083514 1.47315096,8.52679113 C2.41952834,9.47298191 3.67549547,9.99608689 5.01007305,10 C5.0152381,10 5.02012924,10 5.02505951,10 C6.35568505,10 7.60503936,9.4832734 8.54429524,8.5439697 C9.48699448,7.60145724 10.0039295,6.34644357 9.99997751,5.01007627 C9.99606459,3.67543074 9.47322102,2.41916486 8.52707842,1.47320887 Z M7.50158192,7.5019859 C6.84092551,8.16244116 5.96185025,8.52581285 5.02478561,8.52581285 C5.02134225,8.52581285 5.01789888,8.52581285 5.01445552,8.52581285 C4.07199105,8.5231128 3.18458128,8.1533236 2.51582515,7.48429863 C1.84706902,6.81550845 1.47729864,5.92801437 1.47459873,4.98554105 C1.47189882,4.04451558 1.83552592,3.16120853 2.49837355,2.49805323 C3.15902995,1.83759797 4.03833999,1.47422628 4.97540463,1.47422628 C4.97861322,1.47422628 4.98229136,1.47422628 4.98573473,1.47422628 C5.92819919,1.47692633 6.81560896,1.84671553 7.48436509,2.5157405 C8.15312123,3.18453068 8.5228916,4.07202476 8.52559151,5.01449808 C8.52833055,5.95552355 8.16470345,6.83883061 7.50158192,7.5019859 Z" id="Shape"></path>
                        <path d="M17.7824294,16.887731 L9.26757566,8.22127169 C8.97798375,7.92624277 8.50744616,7.92624277 8.2175783,8.22127169 C7.9274739,8.51654134 7.9274739,8.99521603 8.2175783,9.29020482 L16.2049695,17.420051 L13.9376296,19.7073376 C13.6463032,20.0013233 13.6443321,20.4797573 13.9329384,20.7762707 C14.0782469,20.9254102 14.2693239,21 14.460401,21 C14.6492704,21 14.8383764,20.9271756 14.9831723,20.780564 L17.7801824,17.9589111 C17.9205237,17.8175957 17.9994854,17.6248419 17.9999979,17.4238226 C18.0004709,17.2228033 17.9220217,17.0298088 17.7824294,16.887731 Z" id="Shape"></path>
                        <path d="M14.7869001,14.2130959 C14.5027732,13.928968 14.0426646,13.928968 13.7585378,14.2130959 L11.2130951,16.7585478 C10.9289683,17.042444 10.9289683,17.5030562 11.2130951,17.7869138 C11.3551392,17.9289584 11.5410822,18 11.7272955,18 C11.9132386,18 12.0994133,17.9289584 12.241496,17.7869138 L14.7869387,15.2414619 C15.0710269,14.9576043 15.0710269,14.4969921 14.7869001,14.2130959 Z" id="Shape"></path>
                    </g>
                </g>
            </g>
        </g>
    </g>
</svg>