<?xml version="1.0" encoding="UTF-8"?>
<svg width="90px" height="87px" viewBox="0 0 90 87" version="1.1" xmlns="http://www.w3.org/2000/svg" xmlns:xlink="http://www.w3.org/1999/xlink">
    <!-- Generator: Sketch 47.1 (45422) - http://www.bohemiancoding.com/sketch -->
    <title>Shape</title>
    <desc>Created with Sketch.</desc>
    <defs>
        <path d="M0.0690384569,14.6963558 C0.0258894213,14.8150328 0,14.9506638 0,15.0947716 C0,21.4439942 0.00862980712,27.7932169 0.103557685,34.1424395 C0.129447107,36.0667032 3.19302863,35.8802107 4.53064874,36.0327955 C7.70641775,36.3888267 10.7441099,37.4569202 13.8594702,38.1350748 C17.1474267,38.8556141 20.4699025,39.4066147 23.7923782,39.9491384 C23.8614167,39.9576153 23.9218253,39.9576153 23.982234,39.9660923 C24.0857917,39.9915231 24.1979792,40 24.3187965,40 C26.8732194,39.8813229 29.4103827,39.5591995 31.9302863,39.1523067 C32.0942527,39.1268759 32.2236998,39.0760143 32.3445171,39.0081989 C33.8029545,38.7030293 35.2959111,38.0333516 36.0898534,36.7363809 C36.7888677,35.6004719 36.9010552,34.3458859 36.7370889,33.0828229 C38.7046849,31.3874363 39.5245166,29.1410492 38.9549493,26.6318771 C41.5611511,23.9446894 41.7078578,20.3759007 39.2138435,17.6548053 C40.7930982,15.0354331 40.7413194,12.1108913 38.7392041,9.62714999 C38.609757,9.46608827 38.4630503,9.35588814 38.3163436,9.28807268 C38.1955263,9.21178029 38.0574494,9.14396483 37.8848532,9.11005709 C33.9324016,8.27931769 29.8936519,8.63534886 26.5711761,11.0427978 C26.217354,11.2971057 26.0620175,11.64466 26.0447579,11.9922142 C26.0016088,12.1193682 25.9670896,12.2549991 25.9584598,12.3906301 C25.94983,12.4753994 25.94983,12.5093071 25.9584598,12.4923533 C25.94983,12.5432149 25.9412002,12.5855995 25.9325704,12.6364611 C25.8980512,12.8568614 25.8635319,13.0687847 25.8549021,13.2891849 C25.6391569,13.280708 25.4234118,13.2722311 25.2076666,13.2552772 C26.7265126,8.16064063 26.0965367,-2.25750971 18.2434122,0.438154901 C17.6393257,0.650078219 17.3890613,1.15869418 17.406321,1.65883322 C17.3718017,1.76903334 17.3459123,1.87923347 17.3459123,2.01486439 C17.2596142,5.14285257 16.6210085,8.11825596 14.8432682,10.7715359 C12.6685568,14.0266781 9.05266766,13.7554162 5.47992752,13.3824312 C4.32353337,13.2637541 3.1498796,12.9755384 1.98485564,13.0518308 C0.552307655,13.1196463 0.457379777,13.5434929 0.0690384569,14.6963558 Z M7.7668264,34.0576701 C8.50036001,28.0390479 9.06129747,22.0289026 8.58665808,15.9763726 C16.241297,16.306973 19.4429554,9.46608827 19.7795179,2.53195729 C24.474133,1.78598721 23.71471,9.9153657 22.7395418,12.907723 C22.592835,12.8822922 22.4374985,12.8568614 22.2907918,12.8229536 C20.7460563,12.4838763 20.090191,14.8150328 21.6349264,15.1541101 C24.8969935,15.8661725 28.141801,15.8661725 31.4211277,15.2558333 C32.9831228,14.9591407 32.3186276,12.6279842 30.7652624,12.9246768 C29.9540605,13.0772616 29.1342288,13.1789848 28.323027,13.2383233 C28.323027,13.1959387 28.323027,13.1705079 28.323027,13.1789848 C28.3316568,13.1281232 28.3402866,13.0857385 28.3489164,13.034877 C28.366176,12.9331538 28.3834356,12.8314306 28.3920654,12.7212304 C31.006897,11.0682286 33.9841804,10.7715359 37.0477619,11.3818751 C38.4457907,13.1874617 37.9366321,15.2473564 36.6939399,16.9936045 C36.4781947,17.2987741 36.4350456,17.5954668 36.5040841,17.8582517 C36.4695649,18.1634213 36.5731226,18.4855447 36.8837956,18.7652835 C39.0930262,20.7573627 39.0671368,23.1224269 36.9614639,25.1399369 C36.4781947,25.3603372 36.1416322,25.8435223 36.3660072,26.4962461 C37.0046129,28.3950791 36.6594206,30.1328503 34.985238,31.3789594 C34.9334592,31.4213441 34.8903102,31.4637287 34.8471611,31.5061134 C34.3984112,31.7434675 34.0704785,32.2181757 34.2171852,32.8454688 C34.4156708,33.7101159 34.5192285,34.7273478 33.9669208,35.4902718 C33.4059833,36.2786265 32.3962959,36.5329345 31.4815364,36.6939962 C31.3434594,36.719427 31.231272,36.7618117 31.1277143,36.8211502 C28.8667048,37.1771814 26.6056953,37.4569202 24.3187965,37.5586434 C24.292907,37.5586434 24.2670176,37.5671203 24.2411282,37.5671203 C18.7353112,36.6685654 13.2467539,35.7276259 7.91353313,34.074624 C7.87038409,34.074624 7.81860525,34.0661471 7.7668264,34.0576701 Z M2.45949503,15.5864337 C3.68492764,15.6033876 4.90173044,15.6966338 6.11853325,15.8492186 C6.59317264,21.723733 6.08401402,27.5558627 5.38499964,33.3964694 C4.44435066,33.3371309 3.50370169,33.2777923 2.55442291,33.2184538 C2.47675464,27.3439394 2.45949503,21.469425 2.45949503,15.5864337 Z" id="path-1"></path>
        <filter x="-93.9%" y="-91.2%" width="287.8%" height="292.5%" filterUnits="objectBoundingBox" id="filter-2">
            <feOffset dx="0" dy="2" in="SourceAlpha" result="shadowOffsetOuter1"></feOffset>
            <feGaussianBlur stdDeviation="12.5" in="shadowOffsetOuter1" result="shadowBlurOuter1"></feGaussianBlur>
            <feColorMatrix values="0 0 0 0 0.709803922   0 0 0 0 0.721568627   0 0 0 0 0.756862745  0 0 0 0.5 0" type="matrix" in="shadowBlurOuter1"></feColorMatrix>
        </filter>
    </defs>
    <g id="Page-1" stroke="none" stroke-width="1" fill="none" fill-rule="evenodd">
        <g id="Dekstop" transform="translate(-135.000000, -3269.000000)" fill-rule="nonzero">
            <g id="результаты-обучения" transform="translate(-9.000000, 2861.000000)">
                <g id="like-thumb-up-hand-drawn-symbol-outline-copy" transform="translate(188.500000, 454.000000) rotate(-180.000000) translate(-188.500000, -454.000000) translate(168.000000, 434.000000)">
                    <g id="Shape">
                        <use fill="black" fill-opacity="1" filter="url(#filter-2)" xlink:href="#path-1"></use>
                        <use fill="#B5B8C1" fill-rule="evenodd" xlink:href="#path-1"></use>
                    </g>
                </g>
            </g>
        </g>
    </g>
</svg>