<?xml version="1.0" encoding="UTF-8"?>
<svg width="32px" height="27px" viewBox="0 0 32 27" version="1.1" xmlns="http://www.w3.org/2000/svg" xmlns:xlink="http://www.w3.org/1999/xlink">
    <!-- Generator: Sketch 47.1 (45422) - http://www.bohemiancoding.com/sketch -->
    <title>telegram_3_</title>
    <desc>Created with Sketch.</desc>
    <defs></defs>
    <g id="Page-1" stroke="none" stroke-width="1" fill="none" fill-rule="evenodd">
        <g id="Dekstop" transform="translate(-302.000000, -6945.000000)" fill-rule="nonzero" fill="#FFFFFF">
            <g id="форма(другой-вопрос)" transform="translate(0.000000, 6670.000000)">
                <g id="icon_telegfam(hover)" transform="translate(289.000000, 257.000000)">
                    <path d="M42.8697646,18.2194306 L14.2074619,29.0497414 C12.6375765,29.5010044 12.6851488,31.0447987 13.8506698,31.4248096 L21.0340851,33.6573737 L23.7932777,42.065115 C24.1262837,42.9913916 24.4117174,43.3239011 24.9825848,43.3476518 C25.5772384,43.3476518 25.8150999,43.1338957 26.4335396,42.58763 C27.17091,41.8988602 28.2650726,40.8300796 30.0252472,39.1200305 L37.4940962,44.6301886 C38.8736925,45.3902104 39.8727106,44.9864488 40.2057166,43.3476518 L44.8915868,20.2144879 C45.3673097,18.2194306 44.2017886,17.6256636 42.8697646,18.2194306 Z M22.1520338,33.1586094 L38.4693281,22.9220656 C39.278057,22.3757999 39.5159184,22.9933176 39.1591263,23.3970792 L25.6010246,35.5574282 L24.9112264,41.6376027 L22.1520338,33.1586094 Z" id="telegram_3_"></path>
                </g>
            </g>
        </g>
    </g>
</svg>