<?xml version="1.0" encoding="UTF-8"?>
<svg width="15px" height="17px" viewBox="0 0 15 17" version="1.1" xmlns="http://www.w3.org/2000/svg" xmlns:xlink="http://www.w3.org/1999/xlink">
    <!-- Generator: Sketch 47.1 (45422) - http://www.bohemiancoding.com/sketch -->
    <title>user</title>
    <desc>Created with Sketch.</desc>
    <defs></defs>
    <g id="Page-1" stroke="none" stroke-width="1" fill="none" fill-rule="evenodd">
        <g id="Главная" transform="translate(-1157.000000, -60.000000)" fill-rule="nonzero" fill="#000000">
            <g id="user" transform="translate(1157.000000, 60.000000)">
                <path d="M7.5,0 C5.02400515,0 3,2.02400515 3,4.5 C3,6.97599485 5.02400515,9 7.5,9 C9.97599485,9 12,6.97599485 12,4.5 C12,2.02400515 9.97599485,0 7.5,0 Z" id="Shape"></path>
                <path d="M14.9679404,12.861325 C14.8539326,12.603722 14.7019586,12.36331 14.5309652,12.1400563 C13.6569782,10.97228 12.3080498,10.1995039 10.7880916,10.0105994 C10.598115,9.99344117 10.3891189,10.0277576 10.2371085,10.1308053 C9.4391268,10.6631696 8.48917107,10.9379308 7.50117639,10.9379308 C6.5131817,10.9379308 5.56322597,10.6631696 4.76524425,10.1308053 C4.61323387,10.0277576 4.40423779,9.97625011 4.21426119,10.0105994 C2.69430293,10.1995039 1.32635505,10.97228 0.471387618,12.1400563 C0.300394132,12.36331 0.14838376,12.6209131 0.0344123465,12.861325 C-0.0225733601,12.9643728 -0.00359024664,13.0845788 0.05339546,13.1876265 C0.205405832,13.4280385 0.395382432,13.6684833 0.566375918,13.874546 C0.832357703,14.2008476 1.11735897,14.492767 1.44036283,14.7675282 C1.70634461,15.0079401 2.01032899,15.2311939 2.31434974,15.4544476 C3.81528852,16.4676686 5.62024804,17 7.48219327,17 C9.3441385,17 11.149098,16.4676358 12.6500368,15.4544476 C12.9540212,15.2483849 13.2580056,15.0079401 13.5240237,14.7675282 C13.8280081,14.492767 14.1319925,14.2008147 14.3980106,13.874546 C14.5879872,13.6512923 14.7590171,13.4280385 14.9109911,13.1876265 C15.005943,13.0845788 15.0249261,12.9643399 14.9679404,12.861325 Z" id="Shape"></path>
            </g>
        </g>
    </g>
</svg>