<?xml version="1.0" encoding="UTF-8"?>
<svg width="24px" height="14px" viewBox="0 0 24 14" version="1.1" xmlns="http://www.w3.org/2000/svg" xmlns:xlink="http://www.w3.org/1999/xlink">
    <!-- Generator: Sketch 48.2 (47327) - http://www.bohemiancoding.com/sketch -->
    <title>Fill 1</title>
    <desc>Created with Sketch.</desc>
    <defs></defs>
    <g id="Главная(мобил.версия)" stroke="none" stroke-width="1" fill="none" fill-rule="evenodd" transform="translate(-177.000000, -5376.000000)">
        <g id="icon_vk" transform="translate(168.000000, 5359.000000)" fill="#FEFEFE">
            <g id="Page-1" transform="translate(9.750000, 17.500000)">
                <path d="M11.375624,13.4432967 L12.7651439,13.4432967 C12.7651439,13.4432967 13.1848751,13.3962387 13.3994366,13.1610958 C13.5966597,12.9452173 13.5904468,12.5397833 13.5904468,12.5397833 C13.5904468,12.5397833 13.5632834,10.6421699 14.4284644,10.3624689 C15.2817975,10.0871797 16.3774333,12.1965541 17.5383767,13.0081574 C18.4164169,13.621823 19.0836523,13.4875606 19.0836523,13.4875606 L22.1886521,13.4432967 C22.1886521,13.4432967 23.8129614,13.3412397 23.0427076,12.0417039 C22.9795674,11.9353823 22.5940792,11.0802503 20.7339691,9.32292854 C18.7868785,7.48399053 19.0479643,7.78119115 21.3931133,4.59992398 C22.8213554,2.66231125 23.3922188,1.47968514 23.2139233,0.973223524 C23.0438635,0.490585016 21.9933073,0.617935701 21.9933073,0.617935701 L18.4974734,0.64014119 C18.4974734,0.64014119 18.2381214,0.604259473 18.0459553,0.72102211 C17.8581238,0.83572596 17.7376226,1.10292711 17.7376226,1.10292711 C17.7376226,1.10292711 17.1840975,2.6020182 16.446353,3.87714267 C14.8896631,6.56738912 14.2670738,6.7098866 14.0126343,6.54268368 C13.420676,6.15313176 13.5686294,4.97859374 13.5686294,4.1440497 C13.5686294,1.53644884 13.9571517,0.449409275 12.8119573,0.168090729 C12.4321041,0.0747100309 12.1520907,0.0132405316 11.1801347,0.00294659635 C9.93278881,-0.00984729464 8.87717557,0.00691711424 8.27929334,0.305000069 C7.88166843,0.503231851 7.57463611,0.94498873 7.76174522,0.970429456 C7.99277801,1.00145832 8.51596108,1.11395633 8.79337381,1.49806717 C9.15184308,1.9943819 9.13912833,3.10833276 9.13912833,3.10833276 C9.13912833,3.10833276 9.34516507,6.17754309 8.65842408,6.55871281 C8.18725589,6.82017876 7.54082643,6.28636469 6.15304035,3.84523147 C5.44202574,2.59510656 4.90511652,1.21321927 4.90511652,1.21321927 C4.90511652,1.21321927 4.8015202,0.954841497 4.61686735,0.816608652 C4.39291436,0.649111619 4.07995813,0.596024325 4.07995813,0.596024325 L0.757651698,0.617935701 C0.757651698,0.617935701 0.259175697,0.632200154 0.0759677053,0.853078594 C-0.0870122743,1.04939865 0.0629639835,1.45527381 0.0629639835,1.45527381 C0.0629639835,1.45527381 2.66370834,7.64839938 5.60861786,10.7692264 C8.30934639,13.6309405 11.375624,13.4432967 11.375624,13.4432967" id="Fill-1"></path>
            </g>
        </g>
    </g>
</svg>