<?xml version="1.0" encoding="UTF-8"?>
<svg width="31px" height="31px" viewBox="0 0 31 31" version="1.1" xmlns="http://www.w3.org/2000/svg" xmlns:xlink="http://www.w3.org/1999/xlink">
    <!-- Generator: Sketch 47.1 (45422) - http://www.bohemiancoding.com/sketch -->
    <title>Shape</title>
    <desc>Created with Sketch.</desc>
    <defs></defs>
    <g id="Page-1" stroke="none" stroke-width="1" fill="none" fill-rule="evenodd">
        <g id="Dekstop" transform="translate(-218.000000, -6942.000000)" fill="#FFFFFF">
            <g id="форма(другой-вопрос)" transform="translate(0.000000, 6670.000000)">
                <g id="icon_WhatsApp" transform="translate(203.000000, 257.000000)">
                    <path d="M30.7384615,15.2129771 C25.2979942,15.2153732 20.2798953,18.1233631 17.6042567,22.8242531 C14.928618,27.525143 15.0096055,33.2912753 17.8162308,37.9163359 L15.1025385,45.9503053 L23.4486923,43.2951908 C28.9717514,46.3230044 35.8100524,45.6209624 40.5915356,41.5352512 C45.3730188,37.4495401 47.0880118,30.8429109 44.8908283,24.9731826 C42.6936448,19.1034544 37.0482485,15.2100966 30.7384615,15.2129771 L30.7384615,15.2129771 Z M30.7384615,42.6491603 C28.2791047,42.6528401 25.8734015,41.9358152 23.8230769,40.5880153 L18.9966154,42.1214504 L20.5656923,37.4927481 C17.1646527,32.8273825 17.4283081,26.4569308 21.2034158,22.084049 C24.9785235,17.7111672 31.2815104,16.4751735 36.4489328,19.0944563 C41.6163552,21.7137392 44.3018838,27.5058661 42.9446265,33.1043172 C41.5873692,38.7027682 36.5409481,42.6489133 30.7384615,42.6491603 Z M37.8136154,33.5881679 C37.4344615,33.3822901 35.5768462,32.3860305 35.2286923,32.2464122 C34.8805385,32.1067939 34.6277692,32.0334351 34.3559231,32.4049618 C34.0840769,32.7764885 33.3138462,33.6118321 33.0801538,33.8579389 C32.8464615,34.1040458 32.6199231,34.1277099 32.2407692,33.9218321 C31.1219569,33.4309445 30.0979372,32.7502729 29.2146923,31.9103817 C28.402106,31.1069131 27.7141997,30.1881997 27.1734615,29.1842748 C26.9636154,28.7938168 27.1734615,28.5950382 27.3713846,28.410458 C27.5693077,28.2258779 27.7743846,27.979771 27.9746923,27.7644275 C28.1401395,27.5762135 28.2781993,27.3659254 28.3848462,27.1396947 C28.4976128,26.9304877 28.4976128,26.679207 28.3848462,26.47 C28.2942308,26.2759542 27.5955385,24.3662595 27.3046154,23.5877099 C27.0136923,22.8091603 26.687,22.9274809 26.4604615,22.9180153 C26.2339231,22.9085496 25.9835385,22.8683206 25.7236154,22.858855 C25.3292093,22.856439 24.9512917,23.0156995 24.6791538,23.2990076 C23.7673779,24.093978 23.2343237,25.2326701 23.2102308,26.4368702 C23.1410769,28.33 24.4502308,30.1852672 24.641,30.459771 C24.8317692,30.7342748 27.1448462,34.7974046 31.0031538,36.4751908 C34.8614615,38.1529771 34.8805385,37.6394656 35.5887692,37.6016031 C36.297,37.5637405 37.9018462,36.7615267 38.2571538,35.8812214 C38.6124615,35.000916 38.6386923,34.2365649 38.5480769,34.0732824 C38.4574615,33.91 38.1999231,33.7916794 37.8231538,33.5881679 L37.8136154,33.5881679 Z" id="Shape"></path>
                </g>
            </g>
        </g>
    </g>
</svg>