<?xml version="1.0" encoding="UTF-8"?>
<svg width="20px" height="26px" viewBox="0 0 20 26" version="1.1" xmlns="http://www.w3.org/2000/svg" xmlns:xlink="http://www.w3.org/1999/xlink">
    <!-- Generator: Sketch 47.1 (45422) - http://www.bohemiancoding.com/sketch -->
    <title>Group 6</title>
    <desc>Created with Sketch.</desc>
    <defs></defs>
    <g id="Page-1" stroke="none" stroke-width="1" fill="none" fill-rule="evenodd">
        <g id="Dekstop" transform="translate(-1085.000000, -7336.000000)" fill="#FFFFFF">
            <g id="подвал" transform="translate(1.000000, 7265.000000)">
                <g id="icon_youtube" transform="translate(1072.000000, 61.000000)">
                    <g id="Group-6" transform="translate(12.000000, 10.000000)">
                        <path d="M7.9137931,0.0542481203 L6.56896552,0.0542481203 L5.65517241,3.72503759 L4.70689655,0.0542481203 L3.29310345,0.0542481203 C3.56896552,0.922218045 3.86206897,1.79018797 4.15517241,2.65815789 C4.5862069,3.96011278 4.84482759,4.95466165 4.96551724,5.6237218 L4.96551724,9.42109023 L6.29310345,9.42109023 L6.29310345,5.6237218 L7.9137931,0.0542481203 Z M11.4827586,7.16075188 L11.4827586,4.71958647 C11.4827586,3.97819549 11.362069,3.43571429 11.1034483,3.07406015 C10.7758621,2.60390977 10.3103448,2.35075188 9.68965517,2.35075188 C9.0862069,2.35075188 8.62068966,2.58582707 8.29310345,3.07406015 C8.03448276,3.43571429 7.9137931,3.97819549 7.9137931,4.71958647 L7.9137931,7.16075188 C7.9137931,7.90214286 8.03448276,8.44462406 8.29310345,8.8062782 C8.62068966,9.27642857 9.10344828,9.51150376 9.68965517,9.51150376 C10.2931034,9.51150376 10.7586207,9.27642857 11.1034483,8.8062782 C11.362069,8.44462406 11.4827586,7.90214286 11.4827586,7.16075188 Z M10.2758621,7.39582707 C10.2758621,8.04680451 10.0862069,8.37229323 9.70689655,8.37229323 C9.31034483,8.37229323 9.13793103,8.04680451 9.13793103,7.39582707 L9.13793103,4.46642857 C9.13793103,3.81545113 9.32758621,3.50804511 9.70689655,3.50804511 C10.1034483,3.50804511 10.2758621,3.83353383 10.2758621,4.46642857 L10.2758621,7.39582707 Z M15.9482759,9.42109023 L15.9482759,2.44116541 L14.7413793,2.44116541 L14.7413793,7.77556391 C14.4827586,8.17338346 14.2241379,8.37229323 13.9827586,8.37229323 C13.8275862,8.37229323 13.7241379,8.26379699 13.7068966,8.08296992 C13.6896552,8.04680451 13.6896552,7.88406015 13.6896552,7.59473684 L13.6896552,2.44116541 L12.4827586,2.44116541 L12.4827586,7.95639098 C12.4827586,8.44462406 12.5172414,8.78819549 12.5862069,8.98710526 C12.7068966,9.3487594 12.9655172,9.51150376 13.362069,9.51150376 C13.7931034,9.51150376 14.2586207,9.22218045 14.7413793,8.66161654 L14.7413793,9.42109023 L15.9482759,9.42109023 L15.9482759,9.42109023 Z" id="Shape"></path>
                        <path d="M16.5862069,16.4914286 C16.1896552,16.4914286 15.9827586,16.8169173 15.9827586,17.449812 L15.9827586,18.0827068 L17.1724138,18.0827068 L17.1724138,17.449812 C17.1896552,16.8169173 16.9827586,16.4914286 16.5862069,16.4914286 Z" id="Shape" fill-rule="nonzero"></path>
                        <path d="M19.5172414,12.9833835 C19.2758621,11.8803383 18.4137931,11.0666165 17.3793103,10.9581203 C14.9310345,10.668797 12.4482759,10.668797 9.98275862,10.668797 C7.51724138,10.668797 5.03448276,10.668797 2.5862069,10.9581203 C1.55172414,11.0846992 0.689655172,11.8984211 0.448275862,12.9833835 C0.103448276,14.5565789 0.103448276,16.2563534 0.103448276,17.883797 C0.103448276,19.4931579 0.103448276,21.211015 0.448275862,22.7842105 C0.689655172,23.8872556 1.55172414,24.7009774 2.5862069,24.8094737 C5.03448276,25.098797 7.51724138,25.098797 9.98275862,25.098797 C12.4482759,25.098797 14.9310345,25.098797 17.3793103,24.8094737 C18.4137931,24.6828947 19.2758621,23.8691729 19.5172414,22.7842105 C19.862069,21.211015 19.862069,19.5112406 19.862069,17.883797 C19.8448276,16.2744361 19.8448276,14.5565789 19.5172414,12.9833835 Z M5.74137931,14.3938346 L4.31034483,14.3938346 L4.31034483,22.3502256 L2.98275862,22.3502256 L2.98275862,14.3938346 L1.5862069,14.3938346 L1.5862069,13.0918797 L5.74137931,13.0918797 L5.74137931,14.3938346 L5.74137931,14.3938346 Z M9.34482759,22.3502256 L8.15517241,22.3502256 L8.15517241,21.5907519 C7.67241379,22.1693985 7.22413793,22.4406391 6.79310345,22.4406391 C6.4137931,22.4406391 6.13793103,22.2778947 6.01724138,21.9343233 C5.94827586,21.7173308 5.9137931,21.3918421 5.9137931,20.903609 L5.9137931,15.4426316 L7.10344828,15.4426316 L7.10344828,20.5238722 C7.10344828,20.8131955 7.10344828,20.9759398 7.12068966,21.0121053 C7.15517241,21.211015 7.24137931,21.3014286 7.39655172,21.3014286 C7.63793103,21.3014286 7.87931034,21.1025188 8.15517241,20.722782 L8.15517241,15.4426316 L9.34482759,15.4426316 L9.34482759,22.3502256 Z M13.8793103,20.288797 C13.8793103,20.9216917 13.8448276,21.3918421 13.7586207,21.6811654 C13.6034483,22.1874812 13.2758621,22.4587218 12.8103448,22.4587218 C12.3793103,22.4587218 11.9827586,22.2055639 11.5862069,21.6992481 L11.5862069,22.3683083 L10.3965517,22.3683083 L10.3965517,13.1099624 L11.5862069,13.1099624 L11.5862069,16.1297744 C11.9655172,15.6415414 12.3793103,15.3883835 12.8103448,15.3883835 C13.2931034,15.3883835 13.6034483,15.6415414 13.7586207,16.1659398 C13.8448276,16.4371805 13.8793103,16.9073308 13.8793103,17.5583083 L13.8793103,20.288797 Z M18.3793103,19.1315038 L16,19.1315038 L16,20.3611278 C16,20.9940226 16.2068966,21.3195113 16.6034483,21.3195113 C16.8965517,21.3195113 17.0689655,21.1567669 17.137931,20.8131955 C17.1551724,20.7408647 17.1724138,20.4696241 17.1724138,19.9633083 L18.3965517,19.9633083 L18.3965517,20.1441353 C18.3965517,20.5419549 18.3793103,20.8312782 18.3793103,20.9578571 C18.3448276,21.2290977 18.2413793,21.4822556 18.1034483,21.6992481 C17.7758621,22.2055639 17.2758621,22.4406391 16.6551724,22.4406391 C16.0344828,22.4406391 15.5517241,22.2055639 15.2068966,21.7354135 C14.9482759,21.3918421 14.8275862,20.8493609 14.8275862,20.1079699 L14.8275862,17.6848872 C14.8275862,16.9434962 14.9482759,16.401015 15.1896552,16.0574436 C15.5344828,15.5872932 16.0172414,15.352218 16.6206897,15.352218 C17.2241379,15.352218 17.6896552,15.5872932 18.0344828,16.0574436 C18.2758621,16.401015 18.3965517,16.9434962 18.3965517,17.6848872 L18.3965517,19.1315038 L18.3793103,19.1315038 Z" id="Shape" fill-rule="nonzero"></path>
                        <path d="M12.1724138,16.4914286 C11.9827586,16.4914286 11.7758621,16.5818421 11.5862069,16.7988346 L11.5862069,21.0121053 C11.7931034,21.2290977 11.9827586,21.3195113 12.1724138,21.3195113 C12.5172414,21.3195113 12.6896552,21.0121053 12.6896552,20.3792105 L12.6896552,17.4317293 C12.6896552,16.8169173 12.5172414,16.4914286 12.1724138,16.4914286 Z" id="Shape" fill-rule="nonzero"></path>
                    </g>
                </g>
            </g>
        </g>
    </g>
</svg>