<?xml version="1.0" encoding="UTF-8"?>
<svg width="113px" height="37px" viewBox="0 0 113 37" version="1.1" xmlns="http://www.w3.org/2000/svg" xmlns:xlink="http://www.w3.org/1999/xlink">
    <!-- Generator: Sketch 47.1 (45422) - http://www.bohemiancoding.com/sketch -->
    <title>by excv</title>
    <desc>Created with Sketch.</desc>
    <defs></defs>
    <g id="Page-1" stroke="none" stroke-width="1" fill="none" fill-rule="evenodd">
        <g id="Dekstop" transform="translate(-1150.000000, -7455.000000)" fill-rule="nonzero">
            <g id="подвал" transform="translate(1.000000, 7265.000000)">
                <g id="by-excv" transform="translate(1149.000000, 190.000000)">
                    <path d="M44.4256757,1 L28.5743243,1 C28.268018,1 28,0.810810811 28,0.594594595 L28,0.405405405 C28,0.189189189 28.268018,0 28.5743243,0 L44.4256757,0 C44.731982,0 45,0.189189189 45,0.405405405 L45,0.594594595 C45,0.837837838 44.731982,1 44.4256757,1 Z" id="Shape" fill="#010101"></path>
                    <path d="M89.7707865,14.6538462 C89.4651685,14.3846154 89.0449438,14.3846154 88.7393258,14.6538462 C87.1730337,16.0769231 85.1483146,16.8076923 82.8179775,16.8076923 C78.2719101,16.8076923 74.5662921,13.5384615 74.5662921,9.53846154 C74.5662921,5.57692308 78.2719101,2.34615385 82.8179775,2.34615385 C85.1483146,2.34615385 87.1730337,3.07692308 88.7393258,4.5 C89.0449438,4.76923077 89.4651685,4.76923077 89.7707865,4.5 C89.9235955,4.34615385 90,4.19230769 90,4.03846154 C90,3.88461538 89.9235955,3.73076923 89.7707865,3.57692308 C87.9370787,1.92307692 85.4539326,1 82.7797753,1 C77.3932584,1 73,4.80769231 73,9.5 C73,14.1923077 77.3932584,18 82.7797753,18 C85.4539326,18 87.8988764,17.0769231 89.7707865,15.5 C89.9235955,15.3461538 90,15.1923077 90,15.0384615 C90,14.9230769 89.9235955,14.8076923 89.7707865,14.6538462 Z" id="Shape" fill="#010101"></path>
                    <path d="M78.7727273,15.9411765 C78.2272727,15.7058824 77.7272727,15.4313725 77.2727273,15.0784314 L77.1363636,15 L76,15.9803922 L76.1363636,16.0588235 C76.6363636,16.4117647 77.1818182,16.6862745 77.7272727,16.9607843 L77.8636364,17 L79,15.9803922 L78.7727273,15.9411765 Z" id="Shape" fill="#E82022"></path>
                    <path d="M112.687507,1.18250419 L112.419686,1.06757825 C112.151864,0.914343662 111.807523,1.0292696 111.654482,1.33573877 L104.499824,15.9696417 L97.3451668,1.33573877 C97.192126,1.06757825 96.8477842,0.952652308 96.5799628,1.06757825 L96.3121414,1.18250419 C96.04432,1.33573877 95.9295394,1.68051659 96.04432,1.94867712 L103.73462,17.6935308 C103.77288,17.8467654 103.887661,17.9233827 104.040702,17.9616914 C104.078962,18 104.193743,18 104.232003,18 L104.691125,18 C104.767646,18 104.844166,17.9616914 104.920686,17.9616914 C105.035467,17.9233827 105.150248,17.8084568 105.188508,17.6935308 L112.878808,1.94867712 C113.108369,1.68051659 112.993589,1.33573877 112.687507,1.18250419 Z" id="Shape" fill="#010101"></path>
                    <path d="M38.4148936,9 L28.5851064,9 C28.2730496,9 28,8.81081081 28,8.59459459 L28,8.40540541 C28,8.18918919 28.2730496,8 28.5851064,8 L38.4148936,8 C38.7269504,8 39,8.18918919 39,8.40540541 L39,8.59459459 C39,8.81081081 38.7269504,9 38.4148936,9 Z" id="Shape" fill="#010101"></path>
                    <path d="M44.4256757,17 L28.5743243,17 C28.268018,17 28,16.8108108 28,16.5945946 L28,16.4054054 C28,16.1891892 28.268018,16 28.5743243,16 L44.4256757,16 C44.731982,16 45,16.1891892 45,16.4054054 L45,16.5945946 C45,16.8108108 44.731982,17 44.4256757,17 Z" id="Shape" fill="#010101"></path>
                    <path d="M62.0585242,8 L68.8167939,1.22305764 C69.0610687,0.98245614 69.0610687,0.581453634 68.8167939,0.380952381 L68.6132316,0.180451128 C68.3689567,-0.0601503759 67.9618321,-0.0601503759 67.7582697,0.180451128 L61,6.95739348 L62.0585242,8 Z" id="Shape" fill="#E82022"></path>
                    <path d="M58.9714286,9 C56.4,11.6160521 53.789011,14.1930586 51.178022,16.8091106 C50.9406593,17.0433839 50.9406593,17.4338395 51.178022,17.6290672 L51.3758242,17.824295 C51.6131868,18.0585683 52.0087912,18.0585683 52.2065934,17.824295 C54.778022,15.208243 57.4285714,12.5921909 60,9.97613883 C59.6835165,9.6637744 59.3274725,9.35140998 58.9714286,9 Z" id="Shape" fill="#010101"></path>
                    <path d="M51.1722973,1.16779279 L66.8322072,16.8277027 C67.0619369,17.0574324 67.4065315,17.0574324 67.6362613,16.8277027 L67.8277027,16.6362613 C68.0574324,16.4065315 68.0574324,16.0619369 67.8277027,15.8322072 L52.1677928,0.172297297 C51.9380631,-0.0574324324 51.5934685,-0.0574324324 51.3637387,0.172297297 L51.1722973,0.363738739 C50.9425676,0.593468468 50.9425676,0.938063063 51.1722973,1.16779279 Z" id="Shape" fill="#010101"></path>
                    <g id="Group" fill="#000000">
                        <path d="M4.78431373,16.2260417 C5.76470588,15.9177083 6.58823529,15.2239583 6.94117647,14.4145833 C7.17647059,13.875 7.17647059,13.296875 6.98039216,12.8729167 C6.70588235,12.371875 6.11764706,12.2947917 5.68627451,12.2947917 C5.68627451,12.2947917 5.68627451,12.2947917 5.68627451,12.2947917 C4.66666667,12.3333333 3.60784314,12.7572917 2.50980392,13.6052083 C2.39215686,13.6822917 2.31372549,13.759375 2.19607843,13.875 C2.19607843,13.8364583 2.23529412,13.8364583 2.23529412,13.7979167 C2.66666667,13.0270833 3.09803922,12.2177083 3.52941176,11.446875 C3.68627451,11.1385417 3.84313725,10.8302083 4.03921569,10.521875 C5.37254902,8.17083333 6.66666667,6.08958333 8,4.20104167 C8.19607843,3.93125 8.43137255,3.62291667 8.62745098,3.353125 C8.82352941,3.08333333 9.05882353,2.775 9.25490196,2.50520833 C9.41176471,2.27395833 9.60784314,2.04270833 9.80392157,1.81145833 C10.0784314,1.46458333 10.3529412,1.11770833 10.5882353,0.732291667 C10.6666667,0.655208333 10.6666667,0.539583333 10.627451,0.423958333 C10.5882353,0.308333333 10.4705882,0.23125 10.3529412,0.192708333 C10.2352941,0.192708333 10.1568627,0.23125 10.1176471,0.269791667 C9.68627451,0.69375 9.33333333,1.11770833 9.01960784,1.58020833 L8.8627451,1.77291667 C8.39215686,2.3125 8.03921569,2.81354167 7.68627451,3.31458333 C6.90196078,4.35520833 6.19607843,5.434375 5.52941176,6.43645833 C4.8627451,7.47708333 4.19607843,8.59479167 3.56862745,9.67395833 C3.25490196,10.2135417 2.94117647,10.7916667 2.66666667,11.3697917 C2.35294118,11.9479167 2.07843137,12.4875 1.76470588,13.065625 C1.05882353,14.3760417 0.509803922,15.5708333 0.117647059,16.6885417 C0.0784313725,16.88125 0.196078431,17.1125 0.392156863,17.1895833 C0.431372549,17.1895833 0.509803922,17.228125 0.549019608,17.228125 C0.705882353,17.228125 0.823529412,17.1510417 0.901960784,16.996875 C1.09803922,16.6114583 1.37254902,16.1875 1.68627451,15.7635417 C1.68627451,15.9177083 1.76470588,16.0333333 1.88235294,16.1104167 C2.78431373,16.765625 4.19607843,16.41875 4.78431373,16.2260417 Z M4.82352941,13.2583333 C5.25490196,13.1427083 5.68627451,13.0270833 6.07843137,13.1427083 C6.15686275,13.18125 6.19607843,13.2197917 6.23529412,13.296875 C6.31372549,13.4895833 6.2745098,13.759375 6.15686275,13.990625 C5.96078431,14.5302083 5.41176471,15.03125 4.62745098,15.3395833 C3.76470588,15.6479167 2.78431373,15.609375 1.92156863,15.5322917 C1.92156863,15.5322917 1.88235294,15.5322917 1.88235294,15.5322917 C1.84313725,15.5322917 1.80392157,15.5322917 1.76470588,15.5322917 C2.50980392,14.56875 3.52941176,13.6822917 4.82352941,13.2583333 Z" id="Shape"></path>
                        <path d="M19.7254902,14.5302083 C19.6470588,14.3760417 19.4509804,14.2989583 19.2941176,14.3760417 C19.0980392,14.453125 18.9411765,14.5302083 18.745098,14.6458333 C18.1176471,14.915625 17.4901961,15.2239583 16.8627451,15.609375 C16,16.1489583 15.254902,16.6885417 14.5490196,17.1895833 C13.7254902,17.80625 13.0196078,18.384375 12.3921569,18.9625 C13.0588235,16.8427083 13.7647059,15.146875 14.5490196,13.6822917 C14.745098,13.296875 14.9803922,12.9114583 15.2156863,12.5260417 C15.3333333,12.3333333 15.254902,12.1020833 15.0588235,11.9479167 C14.8627451,11.8322917 14.627451,11.8708333 14.4705882,12.0635417 C13.2941176,13.875 11.8823529,15.378125 10.2352941,16.4958333 C9.92156863,16.7270833 9.52941176,16.996875 9.1372549,17.1510417 C8.78431373,17.228125 8.47058824,17.2666667 8.35294118,17.0739583 C8.2745098,16.9197917 8.31372549,16.6885417 8.39215686,16.4958333 C8.47058824,16.2645833 8.58823529,16.0333333 8.70588235,15.7635417 C8.90196078,15.378125 9.1372549,14.9541667 9.45098039,14.5302083 C9.80392157,14.0291667 10.1960784,13.528125 10.5882353,13.065625 C10.7843137,12.834375 10.9803922,12.6416667 11.1764706,12.4875 C11.2941176,12.371875 11.4117647,12.25625 11.5294118,12.140625 C11.6470588,12.025 11.7647059,11.909375 11.8823529,11.8322917 L12,11.7166667 L11.9607843,11.6010417 C11.9215686,11.5239583 11.8431373,11.446875 11.7254902,11.446875 L11.6470588,11.446875 C11.372549,11.5625 11.0980392,11.678125 10.8627451,11.8708333 C10.5882353,12.0635417 10.3529412,12.25625 10.1568627,12.4875 C9.7254902,12.95 9.33333333,13.4125 9.01960784,13.875 C8.70588235,14.2989583 8.35294118,14.8 8.07843137,15.3395833 L8,15.4552083 C7.76470588,15.9177083 7.45098039,16.534375 7.56862745,17.0739583 C7.64705882,17.4208333 7.80392157,17.690625 8.11764706,17.80625 C8.66666667,18.0760417 9.45098039,17.8833333 9.96078431,17.6135417 C10.4705882,17.3822917 10.9019608,17.0354167 11.372549,16.7270833 C11.8823529,16.3416667 12.2745098,15.95625 12.6666667,15.609375 C12,17.1895833 11.4901961,18.8083333 11.0980392,20.11875 C10.8235294,20.3885417 10.5490196,20.6583333 10.3137255,20.928125 C7.64705882,23.7416667 5.41176471,26.7864583 3.7254902,30.0239583 C3.21568627,31.0260417 2.78431373,31.9510417 2.50980392,32.8760417 L2.47058824,33.0302083 C2.23529412,33.8395833 1.96078431,34.7260417 2.07843137,35.6125 C2.11764706,35.9208333 2.23529412,36.3833333 2.62745098,36.653125 C2.8627451,36.8458333 3.17647059,36.9614583 3.52941176,36.9614583 C3.64705882,36.9614583 3.7254902,36.9614583 3.84313725,36.9229167 C4.8627451,36.76875 5.56862745,35.9208333 6,35.3041667 C7.05882353,33.9552083 7.76470588,32.3364583 8.43137255,30.75625 C8.54901961,30.525 8.62745098,30.29375 8.74509804,30.0625 C9.49019608,28.2895833 10.1176471,26.4010417 10.745098,24.3583333 C10.9411765,23.703125 11.1372549,23.009375 11.3333333,22.3541667 C11.5294118,21.6989583 11.7254902,21.0822917 11.8823529,20.4270833 C13.9215686,18.4614583 16.1176471,16.8041667 18.4313725,15.4552083 C18.5490196,15.4166667 18.627451,15.3395833 18.745098,15.2625 C18.9803922,15.1083333 19.254902,14.9541667 19.5294118,14.8385417 L19.5294118,14.8385417 C19.7647059,14.8385417 19.8039216,14.684375 19.7254902,14.5302083 Z M10.5490196,22.315625 L10.3137255,23.1635417 C9.88235294,24.628125 9.41176471,26.1697917 8.8627451,27.634375 C8.58823529,28.4822917 8.23529412,29.36875 7.7254902,30.4479167 C7.56862745,30.75625 7.45098039,31.0645833 7.29411765,31.4114583 C7.05882353,31.9510417 6.82352941,32.490625 6.54901961,33.0302083 C6.15686275,33.7625 5.64705882,34.6104167 5.01960784,35.3427083 C4.74509804,35.6510417 4.47058824,35.9208333 4.07843137,36.075 C3.80392157,36.190625 3.41176471,36.2677083 3.1372549,36.1135417 C2.90196078,35.9208333 2.90196078,35.6510417 2.90196078,35.3427083 C2.90196078,34.91875 2.98039216,34.5333333 3.05882353,34.109375 C3.29411765,33.0302083 3.7254902,32.028125 4.03921569,31.2958333 C5.45098039,28.2895833 7.49019608,25.2833333 10.1176471,22.3927083 L10.3921569,22.1229167 C10.4705882,22.0072917 10.5882353,21.9302083 10.6666667,21.8145833 C10.6666667,21.9302083 10.627451,22.1229167 10.5490196,22.315625 L10.745098,22.3541667 L10.5490196,22.315625 Z" id="Shape"></path>
                    </g>
                </g>
            </g>
        </g>
    </g>
</svg>