<?xml version="1.0" encoding="utf-8"?>
<!-- Generator: Adobe Illustrator 21.1.0, SVG Export Plug-In . SVG Version: 6.00 Build 0)  -->
<svg version="1.1" id="Слой_1" xmlns="http://www.w3.org/2000/svg" xmlns:xlink="http://www.w3.org/1999/xlink" x="0px" y="0px"
	 viewBox="0 0 128 63" style="enable-background:new 0 0 128 63;" xml:space="preserve">
<style type="text/css">
	.st0{enable-background:new    ;}
</style>
<title>logo</title>
<desc>Created with Sketch.</desc>
<g id="Page-1">
	<g id="Dekstop" transform="translate(-103.000000, -35.000000)">
		<g id="экран_1">
			<g id="menu" transform="translate(103.000000, 35.000000)">
				<g id="logo">
					<g id="logo_bombs">
						<path id="Shape" d="M80.7,25.6c0.3-3.9,2.2-11.2-0.2-14.6c-0.4-0.5-0.7-0.9-1.2-1.3c-2.4-1.9-4.9,0.1-6.2,2.3L73,12.3
							c-0.2,0.3-0.3,0.6-0.4,0.9c-0.6,1.5-0.7,2.8-1.1,4.5c1.3-11.6-11.1-11.1-9.3,0.5C61.1,13.8,57.1,9,52,9.9
							c13.7,5.2-9.6,37.3,16.1,33.8c-7.1-2.9-5-13.5-2.1-22.4c0.6,2.7,1.9,7.1-0.1,7.6c4.5,1,7.5-2.5,8.3-6.8
							c0.1-0.4,0.1-0.8,0.2-1.2C74.7,27.9,68.4,47,87,43.6C80.3,40.9,80.1,31.9,80.7,25.6z"/>
						<path id="Shape_1_" d="M49.8,10.3c-3.8-3-9.1-0.2-11.3,1.8c5.8-2.3,8.3,1.7,9,6.9c1.5,20.1-12.1,19.4-9.4,3.9
							c0.9-5.2,7.4-10.5,8.1-5.6c-0.1-2.6-3.5-5.9-6.7-4.7c-6.8,3.6-8,17-4.3,24.7c0.5,1,1.1,1.9,1.7,2.7c2.1,2.5,5.2,3.7,8.9,2.4
							c5.8-2.1,7.6-11.3,8.2-16.6C54.3,20.9,53.8,13.8,49.8,10.3z"/>
						<path id="Shape_2_" d="M121.6,24.5c-2.7-1.1-4.4-0.8-7-0.7c-1.7,0-4.4,0-4.4-2.2c0.3-2.9,4.8-6,7.7-6.4c1.7-0.2,3.2,0,3.8,1.7
							c0.5,2.4-2.4,3.5-4.2,4c1.4,0,2.3-0.1,3.6-0.6c4.8-1.9,7.1-6.5,2.2-9.7c-0.6-0.3-1-0.6-1.7-0.9c-5.7-2.4-13.2,1.9-14.6,7.5
							c-0.9,4.3,0.5,6.6,4.5,8.1c1.5,0.6,3.6,1,5,1.8c1.2,0.8,1.6,2,1.3,3.4c-0.5,3.1-4.6,6.6-7.8,5.2c-2.4-1.5-1.1-4.9,0.7-6.3
							c1.6-1,2.8-0.5,2.8,1.2c1.7-7.5-15.4,2.9-5.1,10.7c5.3,4,12.2,0.9,14.8-3.6C125.2,34,126.8,26.6,121.6,24.5z"/>
						<path id="Shape_3_" d="M28.7,17.5c-1.4-0.9-3-1-4.5-0.7C26.8,14,29.5,9.7,28,5.7c-1.6-3.9-6.2-5-10.1-4.1
							c-1.6,0.4-3.4,0.9-5,1.6l0-0.2c0.2-4.4-5.6-0.5-7.4,1.5c0.8-0.6,3.1-0.6,2.7,1l0,0.1c-2.5,1.6-4.8,3.7-6.2,6.1
							c-1,1.7-1.7,4.4,0.9,4.9c0.9,0.1,1.6-0.1,1.8-0.8c-0.2,0.3-0.9,0.4-1.2,0.3c-1.1-0.4-0.8-1.8-0.2-2.6c0.7-1,2.2-2.1,3.9-3.1
							C5.6,15.7,5.4,22,5.8,27.8C5.4,28,5,28.4,4.7,28.6c-2.5,2.1-4.4,5.1-3.3,8.5c1.4,4,6.6,5.9,11.1,6.6c0.9,0.1,1.8,0.2,2.9,0.3
							c1.1,0,2.1,0,2.8-0.1l0,0c5-0.6,10.5-3.4,13-12l0-0.1c0.2-0.6,0.3-1.3,0.5-1.9C32.4,25.9,32.3,19.8,28.7,17.5z M6.1,30.9
							c0.3,2.4,0.6,4.5,1.1,6.4C4.8,35.9,4.2,33.4,6.1,30.9z M13.7,38.5c-1.3-3.3-2-7.3-2.2-11.4c3.9-1.4,7.2-0.1,4.8,2.2
							c2.4-1.6,1.7-3.8-0.8-4.5c-1.2-0.3-2.6-0.2-4.1,0.2c-0.2-5.8,0.2-11.8,0.8-16.8c2.1-0.7,4-1.1,5.3-0.9
							c4.4,0.6,3.4,4.6,1.5,7.5c-1.4,2.1-2.2,2.9-4.4,3.9c-1.8,0.8-1.6,3-1.6,4.8c0.8-2.4,8.6-3,8.9,5
							C22.3,33.9,19.3,37.8,13.7,38.5z"/>
						<path id="Shape_4_" d="M101.2,10.7c-4-2.9-9.3,0.1-11.6,2.2c5.9-2.5,8.5,1.5,9.4,6.5c2.2,20-11.7,19.7-9.5,4.2
							c0.7-5.2,7.2-10.7,8.1-5.9c-0.2-2.5-3.8-5.8-7-4.5c-0.8,0.5-1.6,1.1-2.3,1.8C89,13,89.6,11,90,9.1l1.2-4.8
							c0.7-4.3-8.3-1.5-9.9-0.4c10.3-0.6-9.2,27.7,5.1,38.6c1.7,1.3,4.1,2,6.5,1.1c-0.6,0.1-1.6-0.7-2.1-1.3c2,1.3,4.4,1.6,7.2,0.5
							c5.8-2.3,7.4-11.5,7.8-16.8C106.2,21.1,105.5,14,101.2,10.7z"/>
						<path id="Shape_5_" d="M6,7c-1.5,0.8-8.2,6.6-5.2,9C-0.4,13.2,4.2,8.3,6,7z"/>
						<path id="Shape_6_" d="M29,4c-0.1-4.3-7.7-5.6-15-1.6C22.2-1.1,28.1,1.4,29,4z"/>
						<path id="Shape_7_" d="M85,6c-0.6-2.7-4.1-2.4-6-0.7C81.1,3.9,83.8,4.2,85,6z"/>
						<path id="Shape_8_" d="M26,15.6c4.8-0.6,7,2.4,6.9,4.4C33.6,16.5,29.3,13.8,26,15.6z"/>
						<path id="Shape_9_" d="M122,22c0.7-0.2,4.5-0.7,5-5C126.3,19.8,123.9,21.1,122,22z"/>
						<path id="Shape_10_" d="M113,44.5c4.8,1.9,9.9-2.4,11-6.5C122.1,42.3,115.7,45.2,113,44.5z"/>
						<path id="Shape_11_" d="M33,34c-0.3,5,2.4,10.1,6,10C35.8,42.8,33.3,37.3,33,34z"/>
						<path id="Shape_12_" d="M66,9.2c-3.6-1-5.5,2.4-4.9,4.8C60.9,11.2,63.6,8.8,66,9.2z"/>
					</g>
					<g class="st0">
						<path d="M2.3,61.6c-0.6-0.3-1-0.7-1.3-1.3s-0.5-1.2-0.5-1.8c0-0.7,0.2-1.3,0.5-1.8s0.8-1,1.3-1.3c0.6-0.3,1.2-0.5,1.9-0.5
							c0.7,0,1.3,0.2,1.9,0.5c0.6,0.3,1,0.7,1.3,1.3s0.5,1.2,0.5,1.8s-0.2,1.3-0.5,1.8c-0.3,0.5-0.8,1-1.3,1.3
							c-0.6,0.3-1.2,0.5-1.9,0.5C3.5,62.1,2.9,61.9,2.3,61.6z M5.6,60.8c0.4-0.2,0.7-0.6,1-1s0.4-0.9,0.4-1.4s-0.1-1-0.4-1.4
							s-0.6-0.7-1-1c-0.4-0.2-0.9-0.4-1.4-0.4s-1,0.1-1.4,0.4s-0.7,0.6-1,1S1.5,58,1.5,58.5s0.1,1,0.4,1.4s0.6,0.7,1,1
							s0.9,0.4,1.4,0.4S5.2,61.1,5.6,60.8z"/>
						<path d="M18.8,55v7H18l-4.2-5.2V62h-1v-7h0.8l4.2,5.2V55H18.8z"/>
						<path d="M24.2,55h1v6.1H29V62h-4.8V55z"/>
						<path d="M33.5,55h1v7h-1V55z"/>
						<path d="M45.9,55v7h-0.8l-4.2-5.2V62h-1v-7h0.8l4.2,5.2V55H45.9z"/>
						<path d="M56.5,61.1V62h-5.1v-7h4.9v0.9h-3.9V58h3.5v0.9h-3.5v2.3H56.5z"/>
						<path d="M67.9,61.8c-0.5-0.2-0.9-0.4-1.2-0.6l0.4-0.8c0.3,0.2,0.6,0.4,1,0.6c0.4,0.2,0.8,0.2,1.3,0.2c0.6,0,1-0.1,1.3-0.3
							c0.3-0.2,0.4-0.5,0.4-0.8c0-0.2-0.1-0.4-0.2-0.6c-0.2-0.2-0.3-0.3-0.6-0.3s-0.6-0.2-1-0.3c-0.5-0.1-1-0.3-1.3-0.4
							c-0.3-0.1-0.6-0.3-0.8-0.6c-0.2-0.3-0.3-0.6-0.3-1.1c0-0.4,0.1-0.7,0.3-1s0.5-0.5,0.9-0.7c0.4-0.2,0.9-0.3,1.5-0.3
							c0.4,0,0.8,0.1,1.2,0.2c0.4,0.1,0.7,0.3,1,0.5l-0.3,0.8c-0.3-0.2-0.6-0.3-0.9-0.4s-0.7-0.1-1-0.1c-0.6,0-1,0.1-1.3,0.3
							s-0.4,0.5-0.4,0.8c0,0.2,0.1,0.4,0.2,0.6c0.2,0.2,0.4,0.3,0.6,0.4c0.2,0.1,0.6,0.2,1,0.3c0.5,0.1,0.9,0.3,1.3,0.4
							s0.6,0.3,0.8,0.6s0.3,0.6,0.3,1c0,0.4-0.1,0.7-0.3,1c-0.2,0.3-0.5,0.5-0.9,0.7s-0.9,0.3-1.5,0.3C68.9,62.1,68.4,62,67.9,61.8z
							"/>
						<path d="M78.2,61.6c-0.6-0.3-1-0.7-1.3-1.3c-0.3-0.5-0.5-1.2-0.5-1.8s0.2-1.3,0.5-1.8c0.3-0.5,0.8-1,1.3-1.3
							c0.6-0.3,1.2-0.5,1.9-0.5c0.5,0,1,0.1,1.5,0.3s0.8,0.5,1.2,0.8l-0.7,0.6c-0.5-0.6-1.2-0.8-2-0.8c-0.5,0-1,0.1-1.4,0.4
							c-0.4,0.2-0.7,0.6-1,1c-0.2,0.4-0.4,0.9-0.4,1.4s0.1,1,0.4,1.4c0.2,0.4,0.6,0.7,1,1c0.4,0.2,0.9,0.4,1.4,0.4
							c0.8,0,1.4-0.3,2-0.8l0.7,0.6c-0.3,0.4-0.7,0.6-1.2,0.8s-1,0.3-1.5,0.3C79.4,62.1,78.8,61.9,78.2,61.6z"/>
						<path d="M93.5,55v7h-1v-3.1h-4V62h-1v-7h1v3h4v-3H93.5z"/>
						<path d="M100.2,61.6c-0.6-0.3-1-0.7-1.3-1.3s-0.5-1.2-0.5-1.8c0-0.7,0.2-1.3,0.5-1.8s0.8-1,1.3-1.3c0.6-0.3,1.2-0.5,1.9-0.5
							c0.7,0,1.3,0.2,1.9,0.5c0.6,0.3,1,0.7,1.3,1.3c0.3,0.5,0.5,1.2,0.5,1.8s-0.2,1.3-0.5,1.8c-0.3,0.5-0.8,1-1.3,1.3
							c-0.6,0.3-1.2,0.5-1.9,0.5C101.4,62.1,100.8,61.9,100.2,61.6z M103.5,60.8c0.4-0.2,0.7-0.6,1-1c0.2-0.4,0.4-0.9,0.4-1.4
							s-0.1-1-0.4-1.4c-0.2-0.4-0.6-0.7-1-1c-0.4-0.2-0.9-0.4-1.4-0.4s-1,0.1-1.4,0.4c-0.4,0.2-0.7,0.6-1,1s-0.4,0.9-0.4,1.4
							s0.1,1,0.4,1.4s0.6,0.7,1,1c0.4,0.2,0.9,0.4,1.4,0.4S103.1,61.1,103.5,60.8z"/>
						<path d="M112,61.6c-0.6-0.3-1-0.7-1.3-1.3c-0.3-0.5-0.5-1.2-0.5-1.8c0-0.7,0.2-1.3,0.5-1.8c0.3-0.5,0.8-1,1.3-1.3
							c0.6-0.3,1.2-0.5,1.9-0.5c0.7,0,1.3,0.2,1.9,0.5c0.6,0.3,1,0.7,1.3,1.3s0.5,1.2,0.5,1.8s-0.2,1.3-0.5,1.8
							c-0.3,0.5-0.8,1-1.3,1.3c-0.6,0.3-1.2,0.5-1.9,0.5C113.2,62.1,112.5,61.9,112,61.6z M115.3,60.8c0.4-0.2,0.7-0.6,1-1
							s0.4-0.9,0.4-1.4s-0.1-1-0.4-1.4s-0.6-0.7-1-1c-0.4-0.2-0.9-0.4-1.4-0.4c-0.5,0-1,0.1-1.4,0.4s-0.7,0.6-1,1
							c-0.2,0.4-0.4,0.9-0.4,1.4s0.1,1,0.4,1.4c0.2,0.4,0.6,0.7,1,1s0.9,0.4,1.4,0.4C114.4,61.2,114.8,61.1,115.3,60.8z"/>
						<path d="M122.4,55h1v6.1h3.8V62h-4.8V55z"/>
					</g>
				</g>
			</g>
		</g>
	</g>
</g>
</svg>
