<svg width="30" height="30" viewBox="0 0 30 30" xmlns="http://www.w3.org/2000/svg">
    <title>
        fb
    </title>
    <g fill-rule="nonzero" fill="none">
        <path d="M14.994 30h.012C23.283 30 30 23.283 30 15.006v-.012C30.012 6.717 23.295 0 15.006 0 6.716 0 0 6.717 0 14.994v.012C0 23.283 6.717 30 14.994 30z" fill="#000"/>
        <path d="M16.385 24.828v-8.502h2.746l.408-3.308h-3.154v-2.114c0-.954.256-1.606 1.583-1.606h1.687V6.34a22.51 22.51 0 0 0-2.455-.133c-2.433 0-4.097 1.546-4.097 4.371v2.44h-2.758v3.308h2.758v8.49h3.282v.012z" fill="#FFF"/>
    </g>
</svg>
