<svg width="30" height="30" viewBox="0 0 30 30" xmlns="http://www.w3.org/2000/svg">
    <title>
        ок
    </title>
    <g fill-rule="nonzero" fill="none">
        <path d="M14.976 29.965h.012c8.268 0 14.977-6.71 14.977-14.977C29.976 6.708 23.268 0 14.988 0 6.708 0 0 6.709 0 14.988c0 8.268 6.709 14.977 14.976 14.977z" fill="#ff1f39"/>
        <g fill="#FFF">
            <path d="M14.93 15.425a4.219 4.219 0 0 0 4.216-4.216 4.219 4.219 0 0 0-4.217-4.217 4.219 4.219 0 0 0-4.216 4.217 4.219 4.219 0 0 0 4.216 4.216zm0-5.953c.956 0 1.747.78 1.747 1.748 0 .957-.78 1.749-1.748 1.749-.957 0-1.748-.78-1.748-1.749 0-.968.791-1.748 1.748-1.748z"/>
            <path d="M16.63 18.862a7.779 7.779 0 0 0 2.445-1.016 1.23 1.23 0 0 0 .39-1.7 1.23 1.23 0 0 0-1.701-.39 5.337 5.337 0 0 1-5.67 0 1.23 1.23 0 0 0-1.7.39 1.23 1.23 0 0 0 .39 1.7 8.191 8.191 0 0 0 2.444 1.016l-2.362 2.35a1.233 1.233 0 0 0 0 1.749c.236.236.555.366.874.366.32 0 .638-.118.874-.366l2.315-2.315 2.315 2.315a1.233 1.233 0 0 0 1.748 0 1.233 1.233 0 0 0 0-1.748l-2.362-2.35z"/>
        </g>
    </g>
</svg>
