<svg width="30" height="30" viewBox="0 0 30 30" xmlns="http://www.w3.org/2000/svg">
    <title>
        telegram
    </title>
    <g fill-rule="nonzero" fill="none">
        <path d="M14.988 0C6.708 0 0 6.709 0 14.988c0 8.268 6.709 14.977 14.976 14.977h.012c8.268 0 14.977-6.71 14.977-14.977C29.976 6.708 23.255 0 14.988 0z" fill="#ff1f39"/>
        <path d="M21.248 8.846L7.016 14.232c-.78.225-.756.992-.177 1.181l3.567 1.11 1.37 4.182c.165.46.307.626.59.638.295 0 .414-.107.72-.378.367-.343.91-.874 1.784-1.725l3.709 2.74c.685.378 1.18.177 1.346-.637l2.327-11.504c.236-.993-.343-1.288-1.004-.993zm-10.287 7.43l8.102-5.091c.402-.272.52.035.343.236l-6.733 6.048-.342 3.023-1.37-4.216z" fill="#FFF"/>
    </g>
</svg>
