<svg width="30" height="30" viewBox="0 0 30 30" xmlns="http://www.w3.org/2000/svg">
    <title>
        twitter
    </title>
    <g fill-rule="nonzero" fill="none">
        <path d="M14.976 29.965h.012c8.268 0 14.977-6.71 14.977-14.977v-.012C29.976 6.71 23.268 0 14.988 0 6.708 0 0 6.709 0 14.976v.012c0 8.268 6.709 14.977 14.976 14.977z" fill="#000"/>
        <path d="M23.74 10.04a6.626 6.626 0 0 1-1.937.53 3.439 3.439 0 0 0 1.488-1.865c-.65.39-1.382.673-2.15.815a3.36 3.36 0 0 0-2.468-1.063 3.377 3.377 0 0 0-3.378 3.378c0 .26.036.52.083.767a9.601 9.601 0 0 1-6.969-3.531 3.303 3.303 0 0 0-.46 1.7c0 1.17.602 2.21 1.5 2.812a3.251 3.251 0 0 1-1.536-.426v.048c0 1.641 1.17 3 2.717 3.319a3.145 3.145 0 0 1-.886.118c-.213 0-.425-.024-.638-.06a3.385 3.385 0 0 0 3.154 2.351 6.759 6.759 0 0 1-4.193 1.453c-.272 0-.543-.012-.803-.047a9.602 9.602 0 0 0 5.185 1.523c6.224 0 9.614-5.15 9.614-9.614 0-.142 0-.295-.012-.437a7.502 7.502 0 0 0 1.69-1.772z" fill="#FFF"/>
    </g>
</svg>
