<svg width="30" height="30" viewBox="0 0 30 30" xmlns="http://www.w3.org/2000/svg">
    <title>
        vk
    </title>
    <g fill="none" fill-rule="evenodd">
        <path d="M14.994 30h.012C23.283 30 30 23.283 30 15.006v-.012C30.012 6.717 23.295 0 15.006 0 6.716 0 0 6.717 0 14.994v.012C0 23.283 6.717 30 14.994 30z" fill="#ff1f39" fill-rule="nonzero"/>
        <path d="M14.287 20.942h1.135s.343-.036.52-.228c.166-.18.154-.504.154-.504s-.023-1.55.686-1.777c.698-.229 1.597 1.5 2.543 2.161.722.504 1.266.396 1.266.396l2.543-.036s1.324-.084.698-1.14c-.048-.085-.367-.781-1.893-2.222-1.597-1.5-1.384-1.26.544-3.854 1.171-1.586 1.632-2.546 1.49-2.966-.141-.397-.993-.289-.993-.289l-2.862.024s-.213-.024-.367.072-.248.313-.248.313-.45 1.224-1.053 2.27c-1.277 2.197-1.786 2.317-1.987 2.173-.485-.313-.367-1.273-.367-1.958 0-2.125.32-3.014-.615-3.242-.307-.072-.544-.132-1.336-.132-1.017-.012-1.88 0-2.378.252-.33.156-.58.529-.425.54.189.025.615.12.84.433.295.408.283 1.309.283 1.309s.166 2.51-.39 2.822c-.39.216-.91-.229-2.046-2.222-.58-1.02-1.018-2.15-1.018-2.15s-.082-.215-.236-.324a1.222 1.222 0 0 0-.438-.18l-2.72.012s-.414.012-.556.193c-.13.156-.012.492-.012.492s2.13 5.055 4.542 7.6c2.188 2.318 4.696 2.162 4.696 2.162z" fill="#FFF"/>
    </g>
</svg>
