<?xml version="1.0" encoding="UTF-8"?>
<svg width="30px" height="30px" viewBox="0 0 30 30" version="1.1" xmlns="http://www.w3.org/2000/svg" xmlns:xlink="http://www.w3.org/1999/xlink">
    <!-- Generator: Sketch 47.1 (45422) - http://www.bohemiancoding.com/sketch -->
    <title>fb</title>
    <desc>Created with Sketch.</desc>
    <defs></defs>
    <g id="Page-1" stroke="none" stroke-width="1" fill="none" fill-rule="evenodd">
        <g id="Элементы-дизайна" transform="translate(-997.000000, -329.000000)" fill-rule="nonzero">
            <g id="button_3(поделиться)-hover" transform="translate(997.000000, 121.000000)">
                <g id="fb" transform="translate(0.000000, 208.000000)">
                    <path d="M14.9940797,30 L15.0059047,30 C23.2833935,30 29.9999844,23.2834056 29.9999844,15.0059125 L29.9999844,14.9940875 C30.0118094,6.7165944 23.2952185,0 15.0059047,0 L15.0059047,0 C6.71659091,0 0,6.7165944 0,14.9940875 L0,15.0059125 C0,23.2834056 6.71659091,30 14.9940797,30 Z" id="Shape" fill="#ff1f39"></path>
                    <path d="M16.3849138,24.8275862 L16.3849138,16.3263116 L19.1314655,16.3263116 L19.5387931,13.0175768 L16.3849138,13.0175768 L16.3849138,10.9043338 C16.3849138,9.95035556 16.6409483,9.29826915 17.9676724,9.29826915 L19.6551724,9.29826915 L19.6551724,6.33972897 C19.3642241,6.30350195 18.3633621,6.20689655 17.199569,6.20689655 C14.7672414,6.20689655 13.1030172,7.75258285 13.1030172,10.5782906 L13.1030172,13.0175768 L10.3448276,13.0175768 L10.3448276,16.3263116 L13.1030172,16.3263116 L13.1030172,24.8155105 L16.3849138,24.8155105 L16.3849138,24.8275862 Z" id="facebook_3_" fill="#FFFFFF"></path>
                </g>
            </g>
        </g>
    </g>
</svg>