<?xml version="1.0" encoding="UTF-8"?>
<svg width="30px" height="30px" viewBox="0 0 30 30" version="1.1" xmlns="http://www.w3.org/2000/svg" xmlns:xlink="http://www.w3.org/1999/xlink">
    <!-- Generator: Sketch 47.1 (45422) - http://www.bohemiancoding.com/sketch -->
    <title>ок</title>
    <desc>Created with Sketch.</desc>
    <defs></defs>
    <g id="Page-1" stroke="none" stroke-width="1" fill="none" fill-rule="evenodd">
        <g id="Элементы-дизайна" transform="translate(-997.000000, -249.000000)" fill-rule="nonzero">
            <g id="button_3(поделиться)-hover" transform="translate(997.000000, 121.000000)">
                <g id="ок" transform="translate(0.000000, 128.000000)">
                    <path d="M14.976378,29.9645669 L14.988189,29.9645669 C23.2559055,29.9645669 29.9645669,23.2559055 29.9645669,14.988189 L29.9645669,14.988189 C29.976378,6.70866142 23.2677165,0 14.988189,0 L14.988189,0 C6.70866142,0 0,6.70866142 0,14.988189 L0,14.988189 C0,23.2559055 6.70866142,29.9645669 14.976378,29.9645669 Z" id="Shape" fill="#000000"></path>
                    <g id="ok_3_" transform="translate(10.157480, 6.968504)" fill="#FFFFFF">
                        <path d="M4.77165354,8.45669291 C7.0984252,8.45669291 8.98818898,6.56692913 8.98818898,4.24015748 C8.98818898,1.91338583 7.0984252,0.0236220472 4.77165354,0.0236220472 C2.44488189,0.0236220472 0.55511811,1.91338583 0.55511811,4.24015748 C0.55511811,6.56692913 2.44488189,8.45669291 4.77165354,8.45669291 Z M4.77165354,2.50393701 C5.72834646,2.50393701 6.51968504,3.28346457 6.51968504,4.2519685 C6.51968504,5.20866142 5.74015748,6 4.77165354,6 C3.81496063,6 3.02362205,5.22047244 3.02362205,4.2519685 C3.02362205,3.28346457 3.81496063,2.50393701 4.77165354,2.50393701 Z" id="Shape"></path>
                        <path d="M6.47244094,11.8937008 C7.33464567,11.6929134 8.16141732,11.3622047 8.91732283,10.8779528 C9.49606299,10.511811 9.67322835,9.75590551 9.30708661,9.17716535 C8.94094488,8.5984252 8.18503937,8.42125984 7.60629921,8.78740157 C5.88188976,9.87401575 3.66141732,9.87401575 1.93700787,8.78740157 C1.35826772,8.42125984 0.602362205,8.5984252 0.236220472,9.17716535 C-0.12992126,9.75590551 0.0472440945,10.511811 0.625984252,10.8779528 C1.38188976,11.3503937 2.22047244,11.6929134 3.07086614,11.8937008 L0.708661417,14.2440945 C0.224409449,14.7283465 0.224409449,15.507874 0.708661417,15.992126 C0.94488189,16.2283465 1.26377953,16.3582677 1.58267717,16.3582677 C1.9015748,16.3582677 2.22047244,16.2401575 2.45669291,15.992126 L4.77165354,13.6771654 L7.08661417,15.992126 C7.57086614,16.476378 8.3503937,16.476378 8.83464567,15.992126 C9.31889764,15.507874 9.31889764,14.7283465 8.83464567,14.2440945 L6.47244094,11.8937008 Z" id="Shape"></path>
                    </g>
                </g>
            </g>
        </g>
    </g>
</svg>