<?xml version="1.0" encoding="UTF-8"?>
<svg width="30px" height="30px" viewBox="0 0 30 30" version="1.1" xmlns="http://www.w3.org/2000/svg" xmlns:xlink="http://www.w3.org/1999/xlink">
    <!-- Generator: Sketch 47.1 (45422) - http://www.bohemiancoding.com/sketch -->
    <title>telegram</title>
    <desc>Created with Sketch.</desc>
    <defs></defs>
    <g id="Page-1" stroke="none" stroke-width="1" fill="none" fill-rule="evenodd">
        <g id="Элементы-дизайна" transform="translate(-997.000000, -169.000000)" fill-rule="nonzero">
            <g id="button_3(поделиться)-hover" transform="translate(997.000000, 121.000000)">
                <g id="telegram" transform="translate(0.000000, 48.000000)">
                    <path d="M14.988189,0 L14.988189,0 C6.70866142,0 0,6.70866142 0,14.988189 L0,14.988189 C0,23.2559055 6.70866142,29.9645669 14.976378,29.9645669 L14.988189,29.9645669 C23.2559055,29.9645669 29.9645669,23.2559055 29.9645669,14.988189 L29.9645669,14.988189 C29.976378,6.70866142 23.2559055,0 14.988189,0 Z" id="Shape" fill="#000000"></path>
                    <path d="M21.2480315,8.84645669 L7.01574803,14.2322835 C6.23622047,14.4566929 6.25984252,15.2244094 6.83858268,15.4133858 L10.4055118,16.523622 L11.7755906,20.7047244 C11.9409449,21.1653543 12.0826772,21.3307087 12.3661417,21.3425197 C12.6614173,21.3425197 12.7795276,21.2362205 13.0866142,20.9645669 C13.4527559,20.6220472 13.996063,20.0905512 14.8700787,19.2401575 L18.5787402,21.980315 C19.2637795,22.3582677 19.7598425,22.1574803 19.9251969,21.3425197 L22.2519685,9.83858268 C22.488189,8.84645669 21.9094488,8.5511811 21.2480315,8.84645669 Z M10.9606299,16.2755906 L19.0629921,11.1850394 C19.4645669,10.9133858 19.5826772,11.2204724 19.4055118,11.4212598 L12.6732283,17.4685039 L12.3307087,20.492126 L10.9606299,16.2755906 Z" id="telegram_3_" fill="#FFFFFF"></path>
                </g>
            </g>
        </g>
    </g>
</svg>