<?xml version="1.0" encoding="UTF-8"?>
<svg width="30px" height="30px" viewBox="0 0 30 30" version="1.1" xmlns="http://www.w3.org/2000/svg" xmlns:xlink="http://www.w3.org/1999/xlink">
    <!-- Generator: Sketch 47.1 (45422) - http://www.bohemiancoding.com/sketch -->
    <title>twitter</title>
    <desc>Created with Sketch.</desc>
    <defs></defs>
    <g id="Page-1" stroke="none" stroke-width="1" fill="none" fill-rule="evenodd">
        <g id="Элементы-дизайна" transform="translate(-997.000000, -209.000000)" fill-rule="nonzero">
            <g id="button_3(поделиться)-hover" transform="translate(997.000000, 121.000000)">
                <g id="twitter" transform="translate(0.000000, 88.000000)">
                    <path d="M14.976378,29.9645669 L14.988189,29.9645669 C23.2559055,29.9645669 29.9645669,23.2559055 29.9645669,14.988189 L29.9645669,14.976378 C29.976378,6.70866142 23.2677165,0 14.988189,0 L14.988189,0 C6.70866142,0 0,6.70866142 0,14.976378 L0,14.988189 C0,23.2559055 6.70866142,29.9645669 14.976378,29.9645669 Z" id="Shape" fill="#000000"></path>
                    <path d="M23.7401575,10.0393701 C23.1377953,10.3110236 22.488189,10.488189 21.8031496,10.5708661 C22.5,10.1574803 23.0314961,9.48425197 23.2913386,8.70472441 C22.6417323,9.09448819 21.9094488,9.37795276 21.1417323,9.51968504 C20.5275591,8.85826772 19.6417323,8.45669291 18.6732283,8.45669291 C16.8070866,8.45669291 15.2952756,9.96850394 15.2952756,11.8346457 C15.2952756,12.0944882 15.3307087,12.3543307 15.3779528,12.6023622 C12.5669291,12.4606299 10.0748031,11.1141732 8.40944882,9.07086614 C8.11417323,9.56692913 7.9488189,10.1456693 7.9488189,10.7716535 C7.9488189,11.9409449 8.5511811,12.980315 9.4488189,13.5826772 C8.89370079,13.5708661 8.37401575,13.4173228 7.91338583,13.1574803 C7.91338583,13.1692913 7.91338583,13.1811024 7.91338583,13.2047244 C7.91338583,14.8464567 9.08267717,16.2047244 10.6299213,16.523622 C10.3464567,16.6062992 10.0511811,16.6417323 9.74409449,16.6417323 C9.53149606,16.6417323 9.31889764,16.6181102 9.10629921,16.5826772 C9.53149606,17.9291339 10.7834646,18.8976378 12.2598425,18.9330709 C11.1023622,19.8425197 9.6496063,20.3858268 8.06692913,20.3858268 C7.79527559,20.3858268 7.52362205,20.3740157 7.26377953,20.3385827 C8.76377953,21.2952756 10.5354331,21.8622047 12.4488189,21.8622047 C18.6732283,21.8622047 22.0629921,16.7125984 22.0629921,12.2480315 C22.0629921,12.1062992 22.0629921,11.9527559 22.0511811,11.8110236 C22.7125984,11.3031496 23.2913386,10.7125984 23.7401575,10.0393701 Z" id="twitter_3_" fill="#FFFFFF"></path>
                </g>
            </g>
        </g>
    </g>
</svg>