<?xml version="1.0" encoding="UTF-8"?>
<svg width="26px" height="25px" viewBox="0 0 26 25" version="1.1" xmlns="http://www.w3.org/2000/svg" xmlns:xlink="http://www.w3.org/1999/xlink">
    <!-- Generator: Sketch 47.1 (45422) - http://www.bohemiancoding.com/sketch -->
    <title>favourites-filled-star-symbol</title>
    <desc>Created with Sketch.</desc>
    <defs></defs>
    <g id="Page-1" stroke="none" stroke-width="1" fill="none" fill-rule="evenodd">
        <g id="Стр.-курса_1" transform="translate(-1094.000000, -1212.000000)" fill-rule="nonzero" fill="#FFFFFF">
            <g id="стоимость-курса" transform="translate(103.000000, 1042.000000)">
                <g id="курс(индивидуальный)" transform="translate(600.000000, 81.000000)">
                    <g id="рекомендуем" transform="translate(163.000000, 70.000000)">
                        <g id="Group-2" transform="translate(219.000000, 10.000000)">
                            <g id="favourites-filled-star-symbol" transform="translate(9.000000, 9.000000)">
                                <path d="M24.868776,8.52332012 L17.7087969,7.83813239 C17.2574386,7.79660586 16.867424,7.50592015 16.6829826,7.0698916 L14.1184467,0.778622422 C13.7081209,-0.259540807 12.2512594,-0.259540807 11.8409336,0.778622422 L9.29691399,7.0698916 C9.13278369,7.50592015 8.72245795,7.79660586 8.27109963,7.83813239 L1.11091536,8.52332012 C0.0440684223,8.62713644 -0.386773611,9.97674864 0.413361594,10.7034629 L5.80914515,15.499777 C6.15792203,15.811226 6.30153605,16.2680178 6.19895461,16.7248096 L4.57816791,23.4518997 C4.33197247,24.5110339 5.46036827,25.3828833 6.40411748,24.8224828 L12.3743571,21.2717569 C12.7641665,21.043361 13.2360411,21.043361 13.6258506,21.2717569 L19.5962954,24.8224828 C20.5400446,25.3828833 21.6684404,24.5317971 21.4220398,23.4518997 L19.8217694,16.7248096 C19.7191879,16.2680178 19.8628019,15.811226 20.2115788,15.499777 L25.6073624,10.7034629 C26.3869813,9.97674864 25.935623,8.62713644 24.868776,8.52332012 Z" id="Shape"></path>
                            </g>
                        </g>
                    </g>
                </g>
            </g>
        </g>
    </g>
</svg>