<?xml version="1.0" encoding="UTF-8"?>
<svg width="27px" height="29px" viewBox="0 0 27 29" version="1.1" xmlns="http://www.w3.org/2000/svg" xmlns:xlink="http://www.w3.org/1999/xlink">
    <!-- Generator: Sketch 47.1 (45422) - http://www.bohemiancoding.com/sketch -->
    <title>share</title>
    <desc>Created with Sketch.</desc>
    <defs></defs>
    <g id="Page-1" stroke="none" stroke-width="1" fill="none" fill-rule="evenodd">
        <g id="Элементы-дизайна" transform="translate(-934.000000, -121.000000)" fill-rule="nonzero" fill="#000000">
            <g id="button_3(поделиться)" transform="translate(934.000000, 121.000000)">
                <g id="share">
                    <path d="M21.8735683,18.630814 C20.2262115,18.630814 18.7572687,19.4256645 17.8176211,20.6540698 L9.94955947,16.2041113 C10.1339207,15.6681894 10.235022,15.0901163 10.235022,14.4939784 C10.235022,13.8918189 10.1339207,13.3197674 9.94361233,12.7778239 L17.8057269,8.33388704 C18.7394273,9.56831395 20.2143172,10.369186 21.8676211,10.369186 C24.6865639,10.369186 26.9881057,8.0448505 26.9881057,5.18459302 C26.9881057,2.32433555 24.692511,0 21.8676211,0 C19.0427313,0 16.7471366,2.32433555 16.7471366,5.18459302 C16.7471366,5.78675249 16.8482379,6.36482558 17.0385463,6.90074751 L9.18237885,11.3446844 C8.24867841,10.1042359 6.77378855,9.30938538 5.12048458,9.30938538 C2.30154185,9.30938538 0,11.6337209 0,14.4939784 C0,17.3542359 2.30154185,19.6785714 5.12643172,19.6785714 C6.77973568,19.6785714 8.25462555,18.8776993 9.19427313,17.6372508 L17.0563877,22.0872093 C16.8660793,22.6291528 16.7590308,23.2132475 16.7590308,23.815407 C16.7590308,26.6696429 19.0546256,29 21.8795154,29 C24.7044053,29 27,26.6756645 27,23.815407 C27,20.9551495 24.6984581,18.630814 21.8735683,18.630814 Z M21.8735683,1.63185216 C23.8123348,1.63185216 25.388326,3.22757475 25.388326,5.19061462 C25.388326,7.15365449 23.8123348,8.74937708 21.8735683,8.74937708 C19.9348018,8.74937708 18.3588106,7.15365449 18.3588106,5.19061462 C18.3588106,3.22757475 19.9407489,1.63185216 21.8735683,1.63185216 Z M5.12643172,18.0527409 C3.1876652,18.0527409 1.61167401,16.4570183 1.61167401,14.4939784 C1.61167401,12.5309385 3.1876652,10.9352159 5.12643172,10.9352159 C7.06519824,10.9352159 8.64118943,12.5309385 8.64118943,14.4939784 C8.64118943,16.4570183 7.0592511,18.0527409 5.12643172,18.0527409 Z M21.8735683,27.3681478 C19.9348018,27.3681478 18.3588106,25.7724252 18.3588106,23.8093854 C18.3588106,21.8463455 19.9348018,20.2506229 21.8735683,20.2506229 C23.8123348,20.2506229 25.388326,21.8463455 25.388326,23.8093854 C25.388326,25.7724252 23.8123348,27.3681478 21.8735683,27.3681478 Z" id="Shape"></path>
                </g>
            </g>
        </g>
    </g>
</svg>