<?xml version="1.0" encoding="UTF-8"?>
<svg width="30px" height="30px" viewBox="0 0 30 30" version="1.1" xmlns="http://www.w3.org/2000/svg" xmlns:xlink="http://www.w3.org/1999/xlink">
    <!-- Generator: Sketch 47.1 (45422) - http://www.bohemiancoding.com/sketch -->
    <title>vk</title>
    <desc>Created with Sketch.</desc>
    <defs></defs>
    <g id="Page-1" stroke="none" stroke-width="1" fill="none" fill-rule="evenodd">
        <g id="Элементы-дизайна" transform="translate(-997.000000, -289.000000)">
            <g id="button_3(поделиться)-hover" transform="translate(997.000000, 121.000000)">
                <g id="vk" transform="translate(0.000000, 168.000000)">
                    <path d="M14.9940797,30 L15.0059047,30 C23.2833935,30 29.9999844,23.2834056 29.9999844,15.0059125 L29.9999844,14.9940875 C30.0118094,6.7165944 23.2952185,0 15.0059047,0 L15.0059047,0 C6.71659091,0 0,6.7165944 0,14.9940875 L0,15.0059125 C0,23.2834056 6.71659091,30 14.9940797,30 Z" id="Shape" fill="#ff1f39" fill-rule="nonzero"></path>
                    <path d="M14.2866365,20.942242 L15.4220923,20.942242 C15.4220923,20.942242 15.7650946,20.9062184 15.9425096,20.7140921 C16.1080969,20.5339737 16.0962692,20.2097607 16.0962692,20.2097607 C16.0962692,20.2097607 16.0726139,18.6607427 16.7822737,18.4325928 C17.4801059,18.2044428 18.3790084,19.9335792 19.3252216,20.5940132 C20.0467091,21.0983446 20.5907817,20.9902736 20.5907817,20.9902736 L23.1337295,20.9542499 C23.1337295,20.9542499 24.4584279,20.8701947 23.8315617,19.8135003 C23.7842511,19.729445 23.4649041,19.0329873 21.9391354,17.5920404 C20.3424007,16.091054 20.5552987,16.3312118 22.483208,13.7375073 C23.6541468,12.1524656 24.1154257,11.1918343 23.9734937,10.7715581 C23.8315617,10.3752977 22.9799699,10.4833687 22.9799699,10.4833687 L20.1176751,10.5073845 C20.1176751,10.5073845 19.9047771,10.4833687 19.7510175,10.5794318 C19.5972579,10.675495 19.5026366,10.891637 19.5026366,10.891637 C19.5026366,10.891637 19.0531853,12.1164419 18.4499744,13.1611285 C17.1725867,15.3585726 16.6639971,15.4786515 16.4629268,15.3345568 C15.9779926,15.0223516 16.0962692,14.0617203 16.0962692,13.3772705 C16.0962692,11.2518738 16.4156161,10.3632898 15.4812307,10.1351399 C15.1737114,10.0630925 14.9371581,10.0030531 14.1447046,10.0030531 C13.1275254,9.99104516 12.2641059,10.0030531 11.767344,10.2552188 C11.4361694,10.4113214 11.1877885,10.783566 11.3415481,10.7955739 C11.5307907,10.8195897 11.9565867,10.9156528 12.1813123,11.227858 C12.4770039,11.6361263 12.4651762,12.5367181 12.4651762,12.5367181 C12.4651762,12.5367181 12.6307635,15.0463674 12.0748633,15.3585726 C11.6845504,15.5747146 11.1641331,15.1304226 10.0286774,13.1371127 C9.44912181,12.1164419 9.01149823,10.9877001 9.01149823,10.9877001 C9.01149823,10.9877001 8.92870458,10.7715581 8.77494494,10.6634871 C8.59752997,10.5314003 8.33732136,10.4833687 8.33732136,10.4833687 L5.61695854,10.4953766 C5.61695854,10.4953766 5.20299029,10.5073845 5.06105832,10.6875029 C4.93095401,10.8436054 5.04923065,11.1798264 5.04923065,11.1798264 C5.04923065,11.1798264 7.17821025,16.2351486 9.59105378,18.7808216 C11.7791717,21.0983446 14.2866365,20.942242 14.2866365,20.942242 L14.2866365,20.942242 L14.2866365,20.942242 Z" id="vk_x5F_alt_3_" fill="#FFFFFF"></path>
                </g>
            </g>
        </g>
    </g>
</svg>