<svg width="113" height="37" viewBox="0 0 113 37" xmlns="http://www.w3.org/2000/svg">
    <title>
        by excv
    </title>
    <g fill-rule="nonzero" fill="none">
        <path d="M44.426 1H28.574C28.268 1 28 .81 28 .595v-.19c0-.216.268-.405.574-.405h15.852c.306 0 .574.19.574.405v.19c0 .243-.268.405-.574.405z" fill="#010101"/>
        <path d="M89.77 14.654a.76.76 0 0 0-1.03 0c-1.567 1.423-3.592 2.154-5.922 2.154-4.546 0-8.252-3.27-8.252-7.27 0-3.961 3.706-7.192 8.252-7.192 2.33 0 4.355.73 5.921 2.154a.76.76 0 0 0 1.032 0c.153-.154.229-.308.229-.462 0-.153-.076-.307-.23-.461C87.938 1.923 85.455 1 82.78 1 77.393 1 73 4.808 73 9.5s4.393 8.5 9.78 8.5c2.674 0 5.119-.923 6.99-2.5.154-.154.23-.308.23-.462 0-.115-.076-.23-.23-.384z" fill="#010101"/>
        <path d="M78.773 15.941a6.803 6.803 0 0 1-1.5-.863L77.136 15 76 15.98l.136.079c.5.353 1.046.627 1.591.902l.137.039L79 15.98l-.227-.039z" fill="#E82022"/>
        <path d="M112.688 1.183l-.268-.115c-.268-.154-.612-.039-.766.268L104.5 15.97 97.345 1.336c-.153-.268-.497-.383-.765-.268l-.268.115a.625.625 0 0 0-.268.766l7.69 15.745c.039.153.154.23.307.268.038.038.153.038.191.038h.46c.076 0 .152-.038.229-.038a.462.462 0 0 0 .268-.268l7.69-15.745c.23-.268.115-.613-.191-.766z" fill="#010101"/>
        <path d="M38.415 9h-9.83C28.273 9 28 8.81 28 8.595v-.19c0-.216.273-.405.585-.405h9.83c.312 0 .585.19.585.405v.19c0 .216-.273.405-.585.405z" fill="#010101"/>
        <path d="M44.426 17H28.574c-.306 0-.574-.19-.574-.405v-.19c0-.216.268-.405.574-.405h15.852c.306 0 .574.19.574.405v.19c0 .216-.268.405-.574.405z" fill="#010101"/>
        <path d="M62.059 8l6.758-6.777c.244-.24.244-.642 0-.842l-.204-.2c-.244-.241-.651-.241-.855 0L61 6.956 62.059 8z" fill="#E82022"/>
        <path d="M58.971 9c-2.571 2.616-5.182 5.193-7.793 7.81-.237.233-.237.624 0 .82l.198.194c.237.235.633.235.83 0 2.572-2.616 5.223-5.232 7.794-7.848-.316-.312-.673-.625-1.029-.976z" fill="#010101"/>
        <path d="M51.172 1.168l15.66 15.66c.23.23.575.23.804 0l.192-.192a.555.555 0 0 0 0-.804L52.168.172a.555.555 0 0 0-.804 0l-.192.192a.555.555 0 0 0 0 .804z" fill="#010101"/>
        <g fill="#000">
            <path d="M4.784 16.226c.98-.308 1.804-1.002 2.157-1.811.235-.54.235-1.118.04-1.542-.275-.501-.863-.578-1.295-.578-1.02.038-2.078.462-3.176 1.31a1.954 1.954 0 0 0-.314.27c0-.039.04-.039.04-.077.43-.77.862-1.58 1.293-2.351.157-.308.314-.617.51-.925C5.373 8.17 6.667 6.09 8 4.2c.196-.27.431-.578.627-.848.197-.27.432-.578.628-.848.157-.231.353-.462.549-.694.274-.346.549-.693.784-1.079.079-.077.079-.192.04-.308-.04-.116-.157-.193-.275-.231-.118 0-.196.038-.235.077A8.495 8.495 0 0 0 9.02 1.58l-.157.193c-.47.54-.824 1.04-1.177 1.542-.784 1.04-1.49 2.12-2.157 3.121a89.253 89.253 0 0 0-1.96 3.238c-.314.54-.628 1.118-.902 1.696-.314.578-.589 1.118-.902 1.696C1.059 14.376.51 15.57.118 16.689a.464.464 0 0 0 .274.5c.04 0 .118.04.157.04.157 0 .275-.078.353-.232.196-.386.47-.81.784-1.233 0 .154.079.27.196.346.902.656 2.314.309 2.902.116zm.04-2.968c.43-.115.862-.23 1.254-.115a.304.304 0 0 1 .157.154c.079.193.04.462-.078.694-.196.54-.745 1.04-1.53 1.349-.862.308-1.843.27-2.705.192h-.157c.745-.963 1.764-1.85 3.059-2.274z"/>
            <path d="M19.725 14.53c-.078-.154-.274-.231-.43-.154a3.611 3.611 0 0 0-.55.27c-.627.27-1.255.578-1.882.963-.863.54-1.608 1.08-2.314 1.58a27.385 27.385 0 0 0-2.157 1.773c.667-2.12 1.373-3.815 2.157-5.28.196-.385.431-.77.667-1.156.117-.193.039-.424-.157-.578a.444.444 0 0 0-.588.116c-1.177 1.811-2.589 3.314-4.236 4.432-.313.231-.706.5-1.098.655-.353.077-.666.116-.784-.077-.078-.154-.04-.385.04-.578.078-.231.195-.463.313-.732.196-.386.431-.81.745-1.234.353-.5.745-1.002 1.137-1.464.196-.232.392-.424.588-.579l.353-.346c.118-.116.236-.232.353-.309l.118-.115-.04-.116a.265.265 0 0 0-.235-.154h-.078c-.274.116-.549.231-.784.424-.275.193-.51.385-.706.617-.432.462-.824.925-1.137 1.387-.314.424-.667.925-.942 1.465L8 15.455c-.235.463-.549 1.08-.431 1.619.078.347.235.617.549.732.549.27 1.333.077 1.843-.192.51-.232.941-.579 1.412-.887.51-.385.902-.77 1.294-1.118-.667 1.58-1.177 3.2-1.569 4.51-.274.27-.549.54-.784.81-2.667 2.813-4.902 5.857-6.589 9.095-.51 1.002-.94 1.927-1.215 2.852l-.04.154c-.235.81-.51 1.696-.392 2.582.04.309.157.771.55 1.041.235.193.548.308.901.308.118 0 .196 0 .314-.038C4.863 36.769 5.57 35.92 6 35.304c1.059-1.349 1.765-2.968 2.431-4.548.118-.231.196-.462.314-.694.745-1.772 1.373-3.661 2-5.704.196-.655.392-1.349.588-2.004.196-.655.392-1.272.55-1.927a34.41 34.41 0 0 1 6.548-4.972c.118-.038.196-.115.314-.193a5.05 5.05 0 0 1 .784-.423c.236 0 .275-.155.196-.309zm-9.176 7.786l-.235.848c-.432 1.464-.902 3.006-1.451 4.47a23.241 23.241 0 0 1-1.138 2.814c-.156.308-.274.617-.43.963-.236.54-.471 1.08-.746 1.62-.392.732-.902 1.58-1.53 2.312-.274.308-.548.578-.94.732-.275.116-.667.193-.942.039-.235-.193-.235-.463-.235-.771 0-.424.078-.81.157-1.234.235-1.079.666-2.08.98-2.813 1.412-3.006 3.451-6.013 6.079-8.903l.274-.27c.079-.116.196-.193.275-.308 0 .115-.04.308-.118.5l.196.04-.196-.04z"/>
        </g>
    </g>
</svg>
