<svg width="59" height="58" viewBox="0 0 59 58" xmlns="http://www.w3.org/2000/svg">
    <title>
        booms (1)-02-01
    </title>
    <g fill="#ff1f39" fill-rule="nonzero">
        <path d="M52 8c4.282 6.806 6.603 15.89 6.382 22.837-.138 4.866-1.05 9.31-2.57 13.163 1.907-3.91 3.012-8.55 3.178-13.697C59.183 23.47 56.64 14.47 52 8z"/>
        <path d="M3.357 27.958l.537-1.416C7.254 19.862 15.556 7.972 24 2 14.85 7.039 5.362 19.777 1.72 26.655l-.537 1.36C-3.167 38.77 5.193 49.045 14.625 54 6.153 48.395-.625 38.403 3.357 27.958z"/>
        <path d="M29.332 29.792c-.029-1.726-.2-3.706 1.453-4.47 1.995-.905 2.82-1.641 4.075-3.593 1.738-2.688 2.621-6.366-1.368-6.96-1.168-.17-2.935.198-4.816.849-.541 4.668-.968 10.185-.769 15.532 1.31-.368 2.621-.509 3.733-.17 2.308.68 2.963 2.632.77 4.131 2.25-2.122-.827-3.253-4.389-2.009.285 3.763.912 7.385 2.08 10.497 5.1-.65 7.836-4.244 7.409-9.195-.314-7.384-7.437-6.875-8.178-4.612z"/>
        <path d="M24.032 42.552a64.308 64.308 0 0 1-.97-5.913c-1.766 2.292-1.167 4.583.97 5.913z"/>
        <path d="M35.8.17C24.83-.113 10.554 18.164 5.88 26.935l-.54 1.358C.523 40.147 11.21 51.38 21.78 55.623c19.377 7.78 34.48-4.81 35.135-24.586C57.342 19.07 49.078.51 35.8.17zm10.657 35.422a20.218 20.218 0 0 1-.427 1.783l-.029.141c-2.308 7.95-7.323 10.553-11.91 11.12-.6.084-1.397.14-2.28.112-1.055 0-2.052-.113-2.964-.254-4.103-.623-8.833-2.377-10.087-6.083-1.054-3.14.656-5.942 2.992-7.837.314-.255.684-.538 1.054-.82-.37-5.292-.17-11.148 1.197-15.958-1.595.934-2.906 1.952-3.59 2.886-.485.679-.77 2.009.228 2.377.313.113.912.056 1.111-.255-.17.594-.883.82-1.681.736-2.422-.453-1.795-2.943-.855-4.527 1.368-2.235 3.42-4.131 5.728-5.659l.028-.141c.427-1.5-1.738-1.472-2.45-.934 1.652-1.782 6.895-5.432 6.753-1.358l-.029.17a29.896 29.896 0 0 1 4.588-1.5c3.533-.82 7.722.17 9.232 3.763 1.425 3.678-1.054 7.667-3.505 10.242 1.454-.283 2.878-.198 4.16.623 3.363 2.206 3.42 7.837 2.736 11.373z"/>
    </g>
</svg>
