<svg id="Слой_1" xmlns="http://www.w3.org/2000/svg" viewBox="0 0 128 63">
    <style>
        .st0{enable-background:new}
    </style>
    <title>
        logo
    </title>
    <g id="Page-1">
        <g id="Dekstop" transform="translate(-103 -35)">
            <g id="экран_1">
                <g id="menu" transform="translate(103 35)">
                    <g id="logo">
                        <g id="logo_bombs">
                            <path id="Shape" d="M80.7 25.6c.3-3.9 2.2-11.2-.2-14.6-.4-.5-.7-.9-1.2-1.3-2.4-1.9-4.9.1-6.2 2.3l-.1.3c-.2.3-.3.6-.4.9-.6 1.5-.7 2.8-1.1 4.5 1.3-11.6-11.1-11.1-9.3.5C61.1 13.8 57.1 9 52 9.9c13.7 5.2-9.6 37.3 16.1 33.8-7.1-2.9-5-13.5-2.1-22.4.6 2.7 1.9 7.1-.1 7.6 4.5 1 7.5-2.5 8.3-6.8.1-.4.1-.8.2-1.2.3 7-6 26.1 12.6 22.7-6.7-2.7-6.9-11.7-6.3-18z"/>
                            <path id="Shape_1_" d="M49.8 10.3c-3.8-3-9.1-.2-11.3 1.8 5.8-2.3 8.3 1.7 9 6.9 1.5 20.1-12.1 19.4-9.4 3.9.9-5.2 7.4-10.5 8.1-5.6-.1-2.6-3.5-5.9-6.7-4.7-6.8 3.6-8 17-4.3 24.7.5 1 1.1 1.9 1.7 2.7 2.1 2.5 5.2 3.7 8.9 2.4 5.8-2.1 7.6-11.3 8.2-16.6.3-4.9-.2-12-4.2-15.5z"/>
                            <path id="Shape_2_" d="M121.6 24.5c-2.7-1.1-4.4-.8-7-.7-1.7 0-4.4 0-4.4-2.2.3-2.9 4.8-6 7.7-6.4 1.7-.2 3.2 0 3.8 1.7.5 2.4-2.4 3.5-4.2 4 1.4 0 2.3-.1 3.6-.6 4.8-1.9 7.1-6.5 2.2-9.7-.6-.3-1-.6-1.7-.9-5.7-2.4-13.2 1.9-14.6 7.5-.9 4.3.5 6.6 4.5 8.1 1.5.6 3.6 1 5 1.8 1.2.8 1.6 2 1.3 3.4-.5 3.1-4.6 6.6-7.8 5.2-2.4-1.5-1.1-4.9.7-6.3 1.6-1 2.8-.5 2.8 1.2 1.7-7.5-15.4 2.9-5.1 10.7 5.3 4 12.2.9 14.8-3.6 2-3.7 3.6-11.1-1.6-13.2z"/>
                            <path id="Shape_3_" d="M28.7 17.5c-1.4-.9-3-1-4.5-.7C26.8 14 29.5 9.7 28 5.7c-1.6-3.9-6.2-5-10.1-4.1-1.6.4-3.4.9-5 1.6V3c.2-4.4-5.6-.5-7.4 1.5.8-.6 3.1-.6 2.7 1v.1C5.7 7.2 3.4 9.3 2 11.7c-1 1.7-1.7 4.4.9 4.9.9.1 1.6-.1 1.8-.8-.2.3-.9.4-1.2.3-1.1-.4-.8-1.8-.2-2.6.7-1 2.2-2.1 3.9-3.1C5.6 15.7 5.4 22 5.8 27.8c-.4.2-.8.6-1.1.8-2.5 2.1-4.4 5.1-3.3 8.5 1.4 4 6.6 5.9 11.1 6.6.9.1 1.8.2 2.9.3 1.1 0 2.1 0 2.8-.1 5-.6 10.5-3.4 13-12v-.1c.2-.6.3-1.3.5-1.9.7-4 .6-10.1-3-12.4zM6.1 30.9c.3 2.4.6 4.5 1.1 6.4-2.4-1.4-3-3.9-1.1-6.4zm7.6 7.6c-1.3-3.3-2-7.3-2.2-11.4 3.9-1.4 7.2-.1 4.8 2.2 2.4-1.6 1.7-3.8-.8-4.5-1.2-.3-2.6-.2-4.1.2-.2-5.8.2-11.8.8-16.8 2.1-.7 4-1.1 5.3-.9 4.4.6 3.4 4.6 1.5 7.5-1.4 2.1-2.2 2.9-4.4 3.9-1.8.8-1.6 3-1.6 4.8.8-2.4 8.6-3 8.9 5 .4 5.4-2.6 9.3-8.2 10z"/>
                            <path id="Shape_4_" d="M101.2 10.7c-4-2.9-9.3.1-11.6 2.2 5.9-2.5 8.5 1.5 9.4 6.5 2.2 20-11.7 19.7-9.5 4.2.7-5.2 7.2-10.7 8.1-5.9-.2-2.5-3.8-5.8-7-4.5-.8.5-1.6 1.1-2.3 1.8.7-2 1.3-4 1.7-5.9l1.2-4.8c.7-4.3-8.3-1.5-9.9-.4 10.3-.6-9.2 27.7 5.1 38.6 1.7 1.3 4.1 2 6.5 1.1-.6.1-1.6-.7-2.1-1.3 2 1.3 4.4 1.6 7.2.5 5.8-2.3 7.4-11.5 7.8-16.8.4-4.9-.3-12-4.6-15.3z"/>
                            <path id="Shape_5_" d="M6 7c-1.5.8-8.2 6.6-5.2 9C-.4 13.2 4.2 8.3 6 7z"/>
                            <path id="Shape_6_" d="M29 4c-.1-4.3-7.7-5.6-15-1.6 8.2-3.5 14.1-1 15 1.6z"/>
                            <path id="Shape_7_" d="M85 6c-.6-2.7-4.1-2.4-6-.7 2.1-1.4 4.8-1.1 6 .7z"/>
                            <path id="Shape_8_" d="M26 15.6c4.8-.6 7 2.4 6.9 4.4.7-3.5-3.6-6.2-6.9-4.4z"/>
                            <path id="Shape_9_" d="M122 22c.7-.2 4.5-.7 5-5-.7 2.8-3.1 4.1-5 5z"/>
                            <path id="Shape_10_" d="M113 44.5c4.8 1.9 9.9-2.4 11-6.5-1.9 4.3-8.3 7.2-11 6.5z"/>
                            <path id="Shape_11_" d="M33 34c-.3 5 2.4 10.1 6 10-3.2-1.2-5.7-6.7-6-10z"/>
                            <path id="Shape_12_" d="M66 9.2c-3.6-1-5.5 2.4-4.9 4.8-.2-2.8 2.5-5.2 4.9-4.8z"/>
                        </g>
                        <g class="st0">
                            <path d="M2.3 61.6c-.6-.3-1-.7-1.3-1.3s-.5-1.2-.5-1.8c0-.7.2-1.3.5-1.8s.8-1 1.3-1.3c.6-.3 1.2-.5 1.9-.5s1.3.2 1.9.5c.6.3 1 .7 1.3 1.3s.5 1.2.5 1.8-.2 1.3-.5 1.8-.8 1-1.3 1.3c-.6.3-1.2.5-1.9.5s-1.3-.2-1.9-.5zm3.3-.8c.4-.2.7-.6 1-1s.4-.9.4-1.4-.1-1-.4-1.4-.6-.7-1-1c-.4-.2-.9-.4-1.4-.4s-1 .1-1.4.4-.7.6-1 1-.3 1-.3 1.5.1 1 .4 1.4.6.7 1 1 .9.4 1.4.4.9-.2 1.3-.5z"/>
                            <path d="M18.8 55v7H18l-4.2-5.2V62h-1v-7h.8l4.2 5.2V55h1z"/>
                            <path d="M24.2 55h1v6.1H29v.9h-4.8v-7z"/>
                            <path d="M33.5 55h1v7h-1v-7z"/>
                            <path d="M45.9 55v7h-.8l-4.2-5.2V62h-1v-7h.8l4.2 5.2V55h1z"/>
                            <path d="M56.5 61.1v.9h-5.1v-7h4.9v.9h-3.9V58h3.5v.9h-3.5v2.3h4.1z"/>
                            <path d="M67.9 61.8c-.5-.2-.9-.4-1.2-.6l.4-.8c.3.2.6.4 1 .6.4.2.8.2 1.3.2.6 0 1-.1 1.3-.3.3-.2.4-.5.4-.8 0-.2-.1-.4-.2-.6-.2-.2-.3-.3-.6-.3s-.6-.2-1-.3c-.5-.1-1-.3-1.3-.4-.3-.1-.6-.3-.8-.6-.2-.3-.3-.6-.3-1.1 0-.4.1-.7.3-1s.5-.5.9-.7c.4-.2.9-.3 1.5-.3.4 0 .8.1 1.2.2.4.1.7.3 1 .5l-.3.8c-.3-.2-.6-.3-.9-.4s-.7-.1-1-.1c-.6 0-1 .1-1.3.3s-.4.5-.4.8c0 .2.1.4.2.6.2.2.4.3.6.4.2.1.6.2 1 .3.5.1.9.3 1.3.4s.6.3.8.6.3.6.3 1-.1.7-.3 1c-.2.3-.5.5-.9.7s-.9.3-1.5.3c-.5-.1-1-.2-1.5-.4z"/>
                            <path d="M78.2 61.6c-.6-.3-1-.7-1.3-1.3-.3-.5-.5-1.2-.5-1.8s.2-1.3.5-1.8.8-1 1.3-1.3c.6-.3 1.2-.5 1.9-.5.5 0 1 .1 1.5.3s.8.5 1.2.8l-.7.6c-.5-.6-1.2-.8-2-.8-.5 0-1 .1-1.4.4-.4.2-.7.6-1 1-.2.4-.4.9-.4 1.4s.1 1 .4 1.4c.2.4.6.7 1 1 .4.2.9.4 1.4.4.8 0 1.4-.3 2-.8l.7.6c-.3.4-.7.6-1.2.8s-1 .3-1.5.3c-.7-.2-1.3-.4-1.9-.7z"/>
                            <path d="M93.5 55v7h-1v-3.1h-4V62h-1v-7h1v3h4v-3h1z"/>
                            <path d="M100.2 61.6c-.6-.3-1-.7-1.3-1.3s-.5-1.2-.5-1.8c0-.7.2-1.3.5-1.8s.8-1 1.3-1.3c.6-.3 1.2-.5 1.9-.5s1.3.2 1.9.5c.6.3 1 .7 1.3 1.3.3.5.5 1.2.5 1.8s-.2 1.3-.5 1.8-.8 1-1.3 1.3c-.6.3-1.2.5-1.9.5s-1.3-.2-1.9-.5zm3.3-.8c.4-.2.7-.6 1-1 .2-.4.4-.9.4-1.4s-.1-1-.4-1.4c-.2-.4-.6-.7-1-1-.4-.2-.9-.4-1.4-.4s-1 .1-1.4.4c-.4.2-.7.6-1 1s-.4.9-.4 1.4.1 1 .4 1.4.6.7 1 1c.4.2.9.4 1.4.4s1-.1 1.4-.4z"/>
                            <path d="M112 61.6c-.6-.3-1-.7-1.3-1.3-.3-.5-.5-1.2-.5-1.8 0-.7.2-1.3.5-1.8s.8-1 1.3-1.3c.6-.3 1.2-.5 1.9-.5s1.3.2 1.9.5c.6.3 1 .7 1.3 1.3s.5 1.2.5 1.8-.2 1.3-.5 1.8-.8 1-1.3 1.3c-.6.3-1.2.5-1.9.5s-1.4-.2-1.9-.5zm3.3-.8c.4-.2.7-.6 1-1s.4-.9.4-1.4-.1-1-.4-1.4-.6-.7-1-1c-.4-.2-.9-.4-1.4-.4-.5 0-1 .1-1.4.4s-.7.6-1 1c-.2.4-.4.9-.4 1.4s.1 1 .4 1.4c.2.4.6.7 1 1s.9.4 1.4.4c.5 0 .9-.1 1.4-.4z"/>
                            <path d="M122.4 55h1v6.1h3.8v.9h-4.8v-7z"/>
                        </g>
                    </g>
                </g>
            </g>
        </g>
    </g>
</svg>
