<?xml version="1.0" encoding="UTF-8"?><!DOCTYPE svg PUBLIC "-//W3C//DTD SVG 1.1//EN" "http://www.w3.org/Graphics/SVG/1.1/DTD/svg11.dtd"><svg xmlns="http://www.w3.org/2000/svg" xmlns:xlink="http://www.w3.org/1999/xlink"><defs>
        <path d="M.069 14.696a1.17 1.17 0 0 0-.069.399c0 6.349.009 12.698.104 19.047.025 1.925 3.089 1.738 4.427 1.89 3.175.357 6.213 1.425 9.328 2.103 3.288.72 6.61 1.272 9.933 1.814.07.009.13.009.19.017.104.026.216.034.337.034 2.554-.119 5.091-.44 7.611-.848a1.19 1.19 0 0 0 .415-.144c1.458-.305 2.95-.975 3.745-2.272.699-1.136.811-2.39.647-3.653 1.968-1.696 2.788-3.942 2.218-6.451 2.606-2.687 2.753-6.256.259-8.977 1.58-2.62 1.527-5.544-.475-8.028a1.183 1.183 0 0 0-.423-.339 1.24 1.24 0 0 0-.431-.178c-3.953-.83-7.991-.475-11.314 1.933-.354.254-.509.602-.526.95a1.566 1.566 0 0 0-.087.398c-.008.084-.008.118 0 .101l-.025.144c-.035.22-.07.433-.078.653a16.542 16.542 0 0 1-.647-.034c1.519-5.094.889-15.513-6.965-12.817-.604.212-.854.72-.837 1.22-.034.111-.06.221-.06.357-.086 3.128-.725 6.103-2.503 8.757-2.174 3.255-5.79 2.983-9.363 2.61-1.156-.118-2.33-.406-3.495-.33-1.433.068-1.528.491-1.916 1.644zm7.698 19.362c.733-6.019 1.294-12.03.82-18.082 7.654.331 10.856-6.51 11.193-13.444 4.694-.746 3.935 7.383 2.96 10.376-.147-.026-.303-.051-.45-.085-1.544-.34-2.2 1.992-.655 2.331 3.262.712 6.507.712 9.786.102 1.562-.297.898-2.628-.656-2.331-.81.152-1.63.254-2.442.313v-.059l.026-.144c.017-.102.034-.204.043-.314 2.615-1.653 5.592-1.95 8.656-1.34 1.398 1.806.889 3.866-.354 5.613-.216.305-.259.601-.19.864-.034.305.07.628.38.907 2.209 1.992 2.183 4.357.077 6.375-.483.22-.82.704-.595 1.356.639 1.9.293 3.637-1.38 4.883a2.009 2.009 0 0 0-.139.127c-.449.237-.777.712-.63 1.34.199.864.302 1.881-.25 2.644-.561.789-1.57 1.043-2.485 1.204-.139.025-.25.068-.354.127-2.261.356-4.522.636-6.81.738-.025 0-.051.008-.077.008-5.506-.898-10.994-1.84-16.327-3.492a.978.978 0 0 1-.147-.017zM2.459 15.586c1.226.017 2.443.11 3.66.263.474 5.875-.035 11.707-.734 17.547l-2.83-.178c-.078-5.874-.096-11.749-.096-17.632z" id="b"/>
        <filter x="-93.9%" y="-91.2%" width="287.8%" height="292.5%" filterUnits="objectBoundingBox" id="a">
            <feOffset dy="2" in="SourceAlpha" result="shadowOffsetOuter1"/>
            <feGaussianBlur stdDeviation="12.5" in="shadowOffsetOuter1" result="shadowBlurOuter1"/>
            <feColorMatrix values="0 0 0 0 0.709803922 0 0 0 0 0.721568627 0 0 0 0 0.756862745 0 0 0 0.5 0" in="shadowBlurOuter1"/>
        </filter>
    
        <path d="M.069 14.696a1.17 1.17 0 0 0-.069.399c0 6.349.009 12.698.104 19.047.025 1.925 3.089 1.738 4.427 1.89 3.175.357 6.213 1.425 9.328 2.103 3.288.72 6.61 1.272 9.933 1.814.07.009.13.009.19.017.104.026.216.034.337.034 2.554-.119 5.091-.44 7.611-.848a1.19 1.19 0 0 0 .415-.144c1.458-.305 2.95-.975 3.745-2.272.699-1.136.811-2.39.647-3.653 1.968-1.696 2.788-3.942 2.218-6.451 2.606-2.687 2.753-6.256.259-8.977 1.58-2.62 1.527-5.544-.475-8.028a1.183 1.183 0 0 0-.423-.339 1.24 1.24 0 0 0-.431-.178c-3.953-.83-7.991-.475-11.314 1.933-.354.254-.509.602-.526.95a1.566 1.566 0 0 0-.087.398c-.008.084-.008.118 0 .101l-.025.144c-.035.22-.07.433-.078.653a16.542 16.542 0 0 1-.647-.034c1.519-5.094.889-15.513-6.965-12.817-.604.212-.854.72-.837 1.22-.034.111-.06.221-.06.357-.086 3.128-.725 6.103-2.503 8.757-2.174 3.255-5.79 2.983-9.363 2.61-1.156-.118-2.33-.406-3.495-.33-1.433.068-1.528.491-1.916 1.644zm7.698 19.362c.733-6.019 1.294-12.03.82-18.082 7.654.331 10.856-6.51 11.193-13.444 4.694-.746 3.935 7.383 2.96 10.376-.147-.026-.303-.051-.45-.085-1.544-.34-2.2 1.992-.655 2.331 3.262.712 6.507.712 9.786.102 1.562-.297.898-2.628-.656-2.331-.81.152-1.63.254-2.442.313v-.059l.026-.144c.017-.102.034-.204.043-.314 2.615-1.653 5.592-1.95 8.656-1.34 1.398 1.806.889 3.866-.354 5.613-.216.305-.259.601-.19.864-.034.305.07.628.38.907 2.209 1.992 2.183 4.357.077 6.375-.483.22-.82.704-.595 1.356.639 1.9.293 3.637-1.38 4.883a2.009 2.009 0 0 0-.139.127c-.449.237-.777.712-.63 1.34.199.864.302 1.881-.25 2.644-.561.789-1.57 1.043-2.485 1.204-.139.025-.25.068-.354.127-2.261.356-4.522.636-6.81.738-.025 0-.051.008-.077.008-5.506-.898-10.994-1.84-16.327-3.492a.978.978 0 0 1-.147-.017zM2.459 15.586c1.226.017 2.443.11 3.66.263.474 5.875-.035 11.707-.734 17.547l-2.83-.178c-.078-5.874-.096-11.749-.096-17.632z" id="b"/>
        <filter x="-93.9%" y="-91.2%" width="287.8%" height="292.5%" filterUnits="objectBoundingBox" id="a">
            <feOffset dy="2" in="SourceAlpha" result="shadowOffsetOuter1"/>
            <feGaussianBlur stdDeviation="12.5" in="shadowOffsetOuter1" result="shadowBlurOuter1"/>
            <feColorMatrix values="0 0 0 0 0.709803922 0 0 0 0 0.721568627 0 0 0 0 0.756862745 0 0 0 0.5 0" in="shadowBlurOuter1"/>
        </filter>
    </defs><symbol id="icon-arrow" viewBox="0 0 512 512">
    <path d="M72.6 417.9c-8.1 8.1-8.1 21.2 0 29.2 4 4 9.3 6.1 14.6 6.1s10.6-2 14.6-6.1l176.5-176.5c8.1-8.1 8.1-21.2 0-29.2L101.8 64.9c-8.1-8.1-21.2-8.1-29.2 0-8.1 8.1-8.1 21.2 0 29.2L234.4 256 72.6 417.9z"/>
</symbol><symbol id="icon-bombs" viewBox="0 0 52 50">
    <title>
        bomb copy
    </title>
    <g fill-rule="nonzero">
        <path d="M40.888 10.053c-4.189-.553-3.859 3.307-4.68 6.206-.43 1.517-2.29.681-3.365.585-.894-.08-1.778-.005-2.552.393-3.21-2.745-7.357-4.404-11.89-4.404C8.24 12.833 0 21.153 0 31.416 0 41.68 8.24 50 18.402 50s18.402-8.32 18.402-18.584c0-4.62-1.675-8.844-4.44-12.095.419-.044.907-.022 1.495.091 1.44.277 2.827.069 3.834-1.06.788-.885.975-2.163 1.12-3.295.202-1.574.166-2.893 2.073-2.641 1.494.197 1.476-2.168.002-2.363zm-28.552 14.25a9.506 9.506 0 0 0-3.93 7.7 2.158 2.158 0 0 1-2.148 2.169 2.158 2.158 0 0 1-2.147-2.169c0-4.446 2.142-8.644 5.73-11.23a2.132 2.132 0 0 1 2.995.506c.689.975.465 2.329-.5 3.025z"/>
        <path d="M32.693 7.299c.28.605.999.869 1.605.59.605-.278.87-.996.591-1.601L32.307.7A1.211 1.211 0 0 0 30.222.51c-.241.34-.298.796-.11 1.202l2.58 5.588z"/>
        <path d="M40.687 7.884c.598.285 1.31.026 1.594-.578l2.604-5.58a1.214 1.214 0 0 0-.572-1.61 1.191 1.191 0 0 0-1.594.578l-2.604 5.58a1.215 1.215 0 0 0 .572 1.61z"/>
        <path d="M51.962 9.904c-.163-.648-.794-1.034-1.41-.864l-5.691 1.574a1.15 1.15 0 0 0-.648.473 1.257 1.257 0 0 0-.175 1.01c.163.647.794 1.033 1.411.863l5.69-1.575c.617-.17.985-.833.823-1.48z"/>
        <path d="M49.52 21.795l-4.73-3.572c-.511-.387-1.22-.257-1.582.29-.362.547-.24 1.305.273 1.692l4.728 3.572c.512.387 1.22.257 1.583-.29.362-.548.24-1.305-.273-1.692z"/>
    </g>
</symbol><symbol id="icon-check" viewBox="0 0 12 9">
    <title>
        Shape
    </title>
    <path d="M5.432 8.59a1.388 1.388 0 0 1-1.97 0L.407 5.518a1.408 1.408 0 0 1 0-1.982 1.388 1.388 0 0 1 1.97 0l1.82 1.83c.137.137.36.137.498 0L9.62.41a1.388 1.388 0 0 1 1.971 0 1.406 1.406 0 0 1 0 1.983L5.432 8.59z" fill-rule="nonzero"/>
</symbol><symbol id="icon-close" viewBox="0 0 24 24">
    <title>
        Shape
    </title>
    <path d="M14.852 12l8.557-8.557A2.017 2.017 0 1 0 20.557.591L12 9.148 3.443.59A2.017 2.017 0 1 0 .591 3.443L9.148 12 .59 20.557a2.017 2.017 0 0 0 2.852 2.852L12 14.852l8.557 8.557a2.017 2.017 0 1 0 2.852-2.852L14.852 12z" fill-rule="nonzero"/>
</symbol><symbol id="icon-dizlike" viewBox="0 0 90 87">
    <title>
        like-thumb-up-hand-drawn-symbol-outline copy
    </title>
    
    <g transform="rotate(-180 32.5 33)" fill-rule="nonzero">
        <use filter="url(#a)" xlink:href="#b"/>
        <use fill-rule="evenodd" xlink:href="#b"/>
    </g>
</symbol><symbol id="icon-fb" viewBox="0 0 30 30">
    <title>
        fb
    </title>
    <g fill-rule="nonzero">
        <path d="M14.994 30h.012C23.283 30 30 23.283 30 15.006v-.012C30.012 6.717 23.295 0 15.006 0 6.716 0 0 6.717 0 14.994v.012C0 23.283 6.717 30 14.994 30z"/>
        <path d="M16.385 24.828v-8.502h2.746l.408-3.308h-3.154v-2.114c0-.954.256-1.606 1.583-1.606h1.687V6.34a22.51 22.51 0 0 0-2.455-.133c-2.433 0-4.097 1.546-4.097 4.371v2.44h-2.758v3.308h2.758v8.49h3.282v.012z"/>
    </g>
</symbol><symbol id="icon-instagram" viewBox="0 0 23 23">
    <title>
        Group 5
    </title>
    <g fill-rule="nonzero">
        <path d="M11.57 2.195c3.055 0 3.406.017 4.618.07 1.106.053 1.72.228 2.124.386.527.21.913.457 1.317.86.404.404.65.773.86 1.317.158.404.351 1.001.387 2.125.052 1.211.07 1.562.07 4.617 0 3.055-.018 3.406-.07 4.618-.053 1.106-.229 1.72-.387 2.124-.21.527-.456.913-.86 1.317-.404.404-.773.65-1.317.86-.404.158-1 .351-2.124.387-1.212.052-1.563.07-4.618.07-3.055 0-3.406-.018-4.617-.07-1.106-.053-1.72-.229-2.125-.387a3.646 3.646 0 0 1-1.317-.86 3.502 3.502 0 0 1-.86-1.317c-.158-.404-.351-1-.386-2.124-.053-1.212-.07-1.563-.07-4.618 0-3.055.017-3.406.07-4.617.053-1.106.228-1.72.386-2.125.21-.526.457-.913.86-1.317.404-.403.773-.65 1.317-.86.404-.158 1.001-.351 2.125-.386 1.194-.053 1.562-.07 4.617-.07zm0-2.055c-3.107 0-3.494.018-4.705.07C5.653.264 4.81.457 4.09.738a5.65 5.65 0 0 0-2.02 1.317 5.65 5.65 0 0 0-1.316 2.02c-.281.72-.474 1.562-.527 2.773-.052 1.212-.07 1.616-.07 4.706 0 3.107.018 3.494.07 4.705.053 1.211.246 2.054.527 2.774a5.65 5.65 0 0 0 1.317 2.02 5.65 5.65 0 0 0 2.019 1.316c.72.28 1.562.474 2.774.527 1.211.052 1.615.07 4.705.07s3.494-.018 4.706-.07c1.211-.053 2.054-.246 2.774-.527a5.65 5.65 0 0 0 2.019-1.317 5.65 5.65 0 0 0 1.316-2.019c.281-.72.475-1.563.527-2.774.053-1.211.07-1.615.07-4.705s-.017-3.494-.07-4.706c-.052-1.211-.246-2.054-.527-2.774a5.65 5.65 0 0 0-1.316-2.019 5.65 5.65 0 0 0-2.02-1.317c-.72-.28-1.562-.474-2.773-.526C15.064.158 14.66.14 11.57.14z"/>
        <path d="M11.57 5.689a5.863 5.863 0 0 0-5.864 5.864 5.875 5.875 0 0 0 5.864 5.864 5.875 5.875 0 0 0 5.864-5.864 5.875 5.875 0 0 0-5.864-5.864zm0 9.674a3.806 3.806 0 0 1-3.81-3.81 3.806 3.806 0 0 1 3.81-3.81 3.806 3.806 0 0 1 3.81 3.81 3.806 3.806 0 0 1-3.81 3.81z"/>
        <circle cx="17.663" cy="5.46" r="1.369"/>
    </g>
</symbol><symbol id="icon-key" viewBox="0 0 23 20">
    <title>
        key
    </title>
    <g stroke-width=".5" fill-rule="nonzero">
        <path d="M20.527 9.527A4.992 4.992 0 0 0 22 5.99v-.015c0-1.33-.517-2.58-1.456-3.519A4.945 4.945 0 0 0 17.01 1a4.992 4.992 0 0 0-3.537 1.473A4.993 4.993 0 0 0 12 6.01v.015c0 1.33.517 2.58 1.456 3.52A4.941 4.941 0 0 0 16.99 11a4.992 4.992 0 0 0 3.537-1.473zm-6.029-1.025a3.478 3.478 0 0 1-1.024-2.477v-.01a3.526 3.526 0 0 1 1.042-2.5 3.527 3.527 0 0 1 2.498-1.04 3.48 3.48 0 0 1 2.488 1.023c.66.661 1.024 1.54 1.024 2.477v.01a3.526 3.526 0 0 1-1.042 2.5 3.527 3.527 0 0 1-2.498 1.04 3.478 3.478 0 0 1-2.488-1.023z"/>
        <path d="M5.112 18.782l8.667-8.514a.733.733 0 0 0 0-1.05.765.765 0 0 0-1.07 0l-8.13 7.987-2.286-2.267a.765.765 0 0 0-1.07-.005.734.734 0 0 0-.004 1.05l2.822 2.797a.762.762 0 0 0 1.071.002z"/>
        <path d="M7.787 15.787a.727.727 0 0 0 0-1.028L5.24 12.213a.727.727 0 1 0-1.028 1.028l2.546 2.546a.727.727 0 0 0 1.028 0z"/>
    </g>
</symbol><symbol id="icon-like" viewBox="0 0 90 87">
    <title>
        Shape
    </title>
    
    <g transform="rotate(-180 32.5 33)" fill-rule="nonzero">
        <use filter="url(#a)" xlink:href="#b"/>
        <use fill-rule="evenodd" xlink:href="#b"/>
    </g>
</symbol><symbol id="icon-ok" viewBox="0 0 30 30">
    <title>
        &#x43E;&#x43A;
    </title>
    <g fill-rule="nonzero">
        <path d="M14.976 29.965h.012c8.268 0 14.977-6.71 14.977-14.977C29.976 6.708 23.268 0 14.988 0 6.708 0 0 6.709 0 14.988c0 8.268 6.709 14.977 14.976 14.977z"/>
        <g>
            <path d="M14.93 15.425a4.219 4.219 0 0 0 4.216-4.216 4.219 4.219 0 0 0-4.217-4.217 4.219 4.219 0 0 0-4.216 4.217 4.219 4.219 0 0 0 4.216 4.216zm0-5.953c.956 0 1.747.78 1.747 1.748 0 .957-.78 1.749-1.748 1.749-.957 0-1.748-.78-1.748-1.749 0-.968.791-1.748 1.748-1.748z"/>
            <path d="M16.63 18.862a7.779 7.779 0 0 0 2.445-1.016 1.23 1.23 0 0 0 .39-1.7 1.23 1.23 0 0 0-1.701-.39 5.337 5.337 0 0 1-5.67 0 1.23 1.23 0 0 0-1.7.39 1.23 1.23 0 0 0 .39 1.7 8.191 8.191 0 0 0 2.444 1.016l-2.362 2.35a1.233 1.233 0 0 0 0 1.749c.236.236.555.366.874.366.32 0 .638-.118.874-.366l2.315-2.315 2.315 2.315a1.233 1.233 0 0 0 1.748 0 1.233 1.233 0 0 0 0-1.748l-2.362-2.35z"/>
        </g>
    </g>
</symbol><symbol id="icon-telegram" viewBox="0 0 30 30">
    <title>
        telegram
    </title>
    <g fill-rule="nonzero">
        <path d="M14.988 0C6.708 0 0 6.709 0 14.988c0 8.268 6.709 14.977 14.976 14.977h.012c8.268 0 14.977-6.71 14.977-14.977C29.976 6.708 23.255 0 14.988 0z"/>
        <path d="M21.248 8.846L7.016 14.232c-.78.225-.756.992-.177 1.181l3.567 1.11 1.37 4.182c.165.46.307.626.59.638.295 0 .414-.107.72-.378.367-.343.91-.874 1.784-1.725l3.709 2.74c.685.378 1.18.177 1.346-.637l2.327-11.504c.236-.993-.343-1.288-1.004-.993zm-10.287 7.43l8.102-5.091c.402-.272.52.035.343.236l-6.733 6.048-.342 3.023-1.37-4.216z"/>
    </g>
</symbol><symbol id="icon-telegram_contact" viewBox="0 0 32 27">
    <title>
        telegram_3_
    </title>
    <path d="M29.87.22L1.207 11.05c-1.57.451-1.522 1.995-.356 2.375l7.183 2.232 2.76 8.408c.332.926.618 1.259 1.189 1.283.594 0 .832-.214 1.45-.76.738-.69 1.832-1.758 3.592-3.468l7.47 5.51c1.379.76 2.378.356 2.71-1.282l4.687-23.134C32.367.22 31.202-.374 29.87.22zM9.152 15.158L25.469 4.922c.81-.546 1.047.071.69.475l-13.558 12.16-.69 6.08-2.759-8.478z" fill-rule="nonzero"/>
</symbol><symbol id="icon-twitter" viewBox="0 0 30 30">
    <title>
        twitter
    </title>
    <g fill-rule="nonzero">
        <path d="M14.976 29.965h.012c8.268 0 14.977-6.71 14.977-14.977v-.012C29.976 6.71 23.268 0 14.988 0 6.708 0 0 6.709 0 14.976v.012c0 8.268 6.709 14.977 14.976 14.977z"/>
        <path d="M23.74 10.04a6.626 6.626 0 0 1-1.937.53 3.439 3.439 0 0 0 1.488-1.865c-.65.39-1.382.673-2.15.815a3.36 3.36 0 0 0-2.468-1.063 3.377 3.377 0 0 0-3.378 3.378c0 .26.036.52.083.767a9.601 9.601 0 0 1-6.969-3.531 3.303 3.303 0 0 0-.46 1.7c0 1.17.602 2.21 1.5 2.812a3.251 3.251 0 0 1-1.536-.426v.048c0 1.641 1.17 3 2.717 3.319a3.145 3.145 0 0 1-.886.118c-.213 0-.425-.024-.638-.06a3.385 3.385 0 0 0 3.154 2.351 6.759 6.759 0 0 1-4.193 1.453c-.272 0-.543-.012-.803-.047a9.602 9.602 0 0 0 5.185 1.523c6.224 0 9.614-5.15 9.614-9.614 0-.142 0-.295-.012-.437a7.502 7.502 0 0 0 1.69-1.772z"/>
    </g>
</symbol><symbol id="icon-uEA01-facebook" viewBox="0 0 10 19">
    <title>
        facebook
    </title>
    <path d="M9.766.157v2.946H8.014c-.64 0-1.071.134-1.295.402-.223.268-.335.67-.335 1.205v2.11h3.27l-.435 3.303H6.384v8.471H2.97v-8.47H.123V6.82H2.97V4.387c0-1.384.387-2.457 1.161-3.22C4.904.404 5.934.023 7.222.023c1.093 0 1.941.045 2.544.134z" fill-rule="evenodd"/>
</symbol><symbol id="icon-user" viewBox="0 0 15 17">
    <title>
        user
    </title>
    <g fill-rule="nonzero">
        <path d="M7.5 0A4.512 4.512 0 0 0 3 4.5C3 6.976 5.024 9 7.5 9S12 6.976 12 4.5 9.976 0 7.5 0z"/>
        <path d="M14.968 12.861a3.575 3.575 0 0 0-.437-.72c-.874-1.169-2.223-1.941-3.743-2.13a.868.868 0 0 0-.55.12 4.911 4.911 0 0 1-2.737.807 4.911 4.911 0 0 1-2.736-.807.771.771 0 0 0-.55-.12c-1.52.189-2.889.961-3.744 2.13-.17.222-.323.48-.437.72-.057.103-.038.224.02.327.151.24.341.48.512.687.266.326.551.618.874.893.266.24.57.463.874.686C3.815 16.468 5.62 17 7.482 17s3.667-.532 5.168-1.546c.304-.206.608-.446.874-.686.304-.275.608-.567.874-.893.19-.224.361-.447.513-.687.095-.103.114-.224.057-.327z"/>
    </g>
</symbol><symbol id="icon-vk-2" viewBox="0 0 24 14">
    <title>
        Fill 1
    </title>
    <path d="M12.126 13.943h1.39s.419-.047.633-.282c.198-.216.191-.621.191-.621s-.027-1.898.838-2.178c.854-.275 1.95 1.835 3.11 2.646.878.614 1.546.48 1.546.48l3.105-.045s1.624-.102.854-1.401c-.063-.107-.449-.962-2.309-2.72-1.947-1.838-1.686-1.54.66-4.722 1.427-1.938 1.998-3.12 1.82-3.627-.17-.482-1.22-.355-1.22-.355l-3.497.022s-.259-.036-.451.081c-.188.115-.308.382-.308.382s-.554 1.499-1.292 2.774c-1.556 2.69-2.179 2.833-2.433 2.666-.592-.39-.444-1.564-.444-2.399 0-2.608.388-3.695-.757-3.976-.38-.093-.66-.155-1.632-.165-1.247-.013-2.303.004-2.9.302-.398.198-.705.64-.518.665.23.031.754.144 1.031.528.359.496.346 1.61.346 1.61s.206 3.07-.48 3.45c-.472.262-1.118-.272-2.506-2.713-.711-1.25-1.248-2.632-1.248-2.632s-.103-.258-.288-.396c-.224-.168-.537-.221-.537-.221l-3.322.022s-.499.014-.682.235c-.163.196-.013.602-.013.602s2.6 6.193 5.546 9.314c2.7 2.862 5.767 2.674 5.767 2.674" fill-rule="evenodd"/>
</symbol><symbol id="icon-vk" viewBox="0 0 30 30">
    <title>
        vk
    </title>
    <g fill-rule="evenodd">
        <path d="M14.994 30h.012C23.283 30 30 23.283 30 15.006v-.012C30.012 6.717 23.295 0 15.006 0 6.716 0 0 6.717 0 14.994v.012C0 23.283 6.717 30 14.994 30z" fill-rule="nonzero"/>
        <path d="M14.287 20.942h1.135s.343-.036.52-.228c.166-.18.154-.504.154-.504s-.023-1.55.686-1.777c.698-.229 1.597 1.5 2.543 2.161.722.504 1.266.396 1.266.396l2.543-.036s1.324-.084.698-1.14c-.048-.085-.367-.781-1.893-2.222-1.597-1.5-1.384-1.26.544-3.854 1.171-1.586 1.632-2.546 1.49-2.966-.141-.397-.993-.289-.993-.289l-2.862.024s-.213-.024-.367.072-.248.313-.248.313-.45 1.224-1.053 2.27c-1.277 2.197-1.786 2.317-1.987 2.173-.485-.313-.367-1.273-.367-1.958 0-2.125.32-3.014-.615-3.242-.307-.072-.544-.132-1.336-.132-1.017-.012-1.88 0-2.378.252-.33.156-.58.529-.425.54.189.025.615.12.84.433.295.408.283 1.309.283 1.309s.166 2.51-.39 2.822c-.39.216-.91-.229-2.046-2.222-.58-1.02-1.018-2.15-1.018-2.15s-.082-.215-.236-.324a1.222 1.222 0 0 0-.438-.18l-2.72.012s-.414.012-.556.193c-.13.156-.012.492-.012.492s2.13 5.055 4.542 7.6c2.188 2.318 4.696 2.162 4.696 2.162z"/>
    </g>
</symbol><symbol id="icon-whatsapp" viewBox="0 0 31 31">
    <title>
        Shape
    </title>
    <path d="M15.738.213C10.298.215 5.28 3.123 2.604 7.824a14.878 14.878 0 0 0 .212 15.092L.103 30.95l8.346-2.655a15.182 15.182 0 0 0 17.143-1.76A14.9 14.9 0 0 0 29.89 9.973C27.694 4.103 22.048.21 15.738.213zm0 27.436a12.557 12.557 0 0 1-6.915-2.061l-4.826 1.533 1.569-4.628a12.385 12.385 0 0 1 .637-15.409C9.98 2.711 16.282 1.475 21.45 4.094c5.167 2.62 7.853 8.412 6.496 14.01-1.358 5.599-6.404 9.545-12.207 9.545zm7.076-9.06c-.38-.207-2.237-1.203-2.585-1.343-.348-.14-.601-.213-.873.159-.272.371-1.042 1.207-1.276 1.453-.234.246-.46.27-.84.064a10.531 10.531 0 0 1-3.025-2.012 11.51 11.51 0 0 1-2.042-2.726c-.21-.39 0-.589.198-.774.198-.184.403-.43.604-.646.165-.188.303-.398.41-.624a.705.705 0 0 0 0-.67c-.09-.194-.79-2.104-1.08-2.882-.291-.779-.618-.66-.845-.67-.226-.01-.476-.05-.736-.06a1.436 1.436 0 0 0-1.045.441 4.277 4.277 0 0 0-1.469 3.138c-.069 1.893 1.24 3.748 1.431 4.023.19.274 2.504 4.337 6.362 6.015s3.878 1.164 4.586 1.127c.708-.038 2.313-.84 2.668-1.72.355-.881.382-1.645.291-1.809-.09-.163-.348-.281-.725-.485h-.01z" fill-rule="evenodd"/>
</symbol><symbol id="icon-youtube" viewBox="0 0 20 26">
    <title>
        Group 6
    </title>
    <g fill-rule="evenodd">
        <path d="M7.914.054H6.569l-.914 3.671-.948-3.67H3.293c.276.867.57 1.735.862 2.603.431 1.302.69 2.297.81 2.966V9.42h1.328V5.624l1.62-5.57zm3.569 7.107V4.72c0-.742-.12-1.284-.38-1.646-.327-.47-.793-.723-1.413-.723-.604 0-1.07.235-1.397.723-.259.362-.38.904-.38 1.646v2.44c0 .742.121 1.285.38 1.646.328.47.81.706 1.397.706.603 0 1.069-.236 1.413-.706.26-.361.38-.904.38-1.645zm-1.207.235c0 .65-.19.976-.57.976-.396 0-.568-.325-.568-.976v-2.93c0-.65.19-.958.569-.958.396 0 .569.326.569.958v2.93zm5.672 2.025v-6.98h-1.207v5.335c-.258.397-.517.596-.758.596-.155 0-.259-.108-.276-.289-.017-.036-.017-.199-.017-.488V2.44h-1.207v5.515c0 .489.034.832.103 1.031.12.362.38.525.776.525.431 0 .897-.29 1.38-.85v.76h1.206z"/>
        <path d="M16.586 16.491c-.396 0-.603.326-.603.959v.633h1.19v-.633c.017-.633-.19-.959-.587-.959z" fill-rule="nonzero"/>
        <path d="M19.517 12.983c-.241-1.103-1.103-1.916-2.138-2.025-2.448-.29-4.93-.29-7.396-.29s-4.949 0-7.397.29c-1.034.127-1.896.94-2.138 2.025-.345 1.574-.345 3.273-.345 4.9 0 1.61 0 3.328.345 4.901.242 1.103 1.104 1.917 2.138 2.025 2.448.29 4.931.29 7.397.29 2.465 0 4.948 0 7.396-.29 1.035-.126 1.897-.94 2.138-2.025.345-1.573.345-3.273.345-4.9-.017-1.61-.017-3.327-.345-4.9zm-13.776 1.41h-1.43v7.957H2.982v-7.956H1.586v-1.302h4.155v1.302zm3.604 7.957h-1.19v-.76c-.483.58-.93.85-1.362.85-.38 0-.655-.162-.776-.506-.069-.217-.103-.542-.103-1.03v-5.461h1.19v5.08c0 .29 0 .453.017.49.034.198.12.288.276.288.24 0 .482-.198.758-.578v-5.28h1.19v6.907zm4.534-2.061c0 .633-.034 1.103-.12 1.392-.156.506-.483.778-.949.778-.43 0-.827-.253-1.224-.76v.67h-1.19V13.11h1.19v3.02c.38-.488.793-.742 1.224-.742.483 0 .793.254.949.778.086.271.12.741.12 1.392v2.73zm4.5-1.157H16v1.23c0 .632.207.958.603.958.294 0 .466-.163.535-.507.017-.072.034-.343.034-.85h1.225v.181c0 .398-.018.687-.018.814a1.822 1.822 0 0 1-.276.741c-.327.507-.827.742-1.448.742-.62 0-1.103-.235-1.448-.706-.259-.343-.38-.886-.38-1.627v-2.423c0-.742.121-1.284.363-1.628.344-.47.827-.705 1.43-.705.604 0 1.07.235 1.414.705.242.344.363.886.363 1.628v1.447h-.018z" fill-rule="nonzero"/>
        <path d="M12.172 16.491c-.19 0-.396.09-.586.308v4.213c.207.217.397.308.586.308.345 0 .518-.308.518-.94v-2.948c0-.615-.173-.94-.518-.94z" fill-rule="nonzero"/>
    </g>
</symbol></svg>