<?xml version="1.0" encoding="UTF-8"?>
<svg width="231px" height="203px" viewBox="0 0 231 203" version="1.1" xmlns="http://www.w3.org/2000/svg" xmlns:xlink="http://www.w3.org/1999/xlink">
    <!-- Generator: Sketch 48.2 (47327) - http://www.bohemiancoding.com/sketch -->
    <title>Group 2</title>
    <desc>Created with Sketch.</desc>
    <defs></defs>
    <g id="Pop-up(хочу-попробовать)" stroke="none" stroke-width="1" fill="none" fill-rule="evenodd" transform="translate(-257.000000, -450.000000)">
        <g id="Group" transform="translate(257.000000, 199.000000)">
            <g id="Group-2" transform="translate(-23.000000, 251.000000)">
                <g id="pencil" transform="translate(101.000000, 0.000000)" fill="#000000" fill-rule="nonzero">
                    <path d="M144.757348,8.2333125 C139.459866,2.92134375 132.39337,0 124.891792,0 C117.390214,0 110.333279,2.9165625 105.031017,8.22375 L20.5342717,92.2350938 C20.032254,92.7323437 19.6497644,93.33 19.4107084,93.9898125 L0.286225817,146.583562 C-0.330538745,148.280906 0.0662942676,150.198188 1.31416675,151.513031 C2.23214192,152.478844 3.48957664,153 4.78526033,153 C5.25381016,153 5.72235998,152.933063 6.18612868,152.789625 L53.7534979,138.19725 C54.4993527,137.972531 55.1782718,137.561344 55.7328818,137.0115 L144.762129,47.9798438 C150.078735,42.6774375 153,35.61075 153,28.1041875 C152.995219,20.6024063 150.078735,13.5405 144.757348,8.2333125 Z M48.2552091,129.882656 L30.4503159,135.352406 C29.4128127,132.30675 27.7967939,129.610125 25.5926973,127.405969 C23.675468,125.49825 21.4522469,124.016062 19.1094978,122.811187 L27.2565273,100.40625 L38.2531048,100.40625 L38.2531048,109.96875 C38.2531048,112.612781 40.3902657,114.75 43.0342254,114.75 L51.4729033,114.75 L48.2552091,129.882656 Z M118.633305,60.5832188 L60.3801311,118.837969 L62.0535233,110.96325 C62.3499528,109.548 61.9961498,108.080156 61.0877369,106.961344 C60.179324,105.83775 58.8167046,105.1875 57.3775873,105.1875 L47.815346,105.1875 L47.815346,95.625 C47.815346,92.98575 45.673404,90.84375 43.0342254,90.84375 L35.489617,90.84375 L92.3514848,34.3054688 L92.4088582,34.3580625 C95.9086385,30.8534063 100.570231,28.9265625 105.518691,28.9265625 C110.467151,28.9265625 115.133525,30.8534063 118.628524,34.3580625 C122.123523,37.8627188 124.069439,42.5196563 124.069439,47.4730313 C124.069439,52.4264063 122.142647,57.0785625 118.633305,60.5832188 Z M137.996843,41.2191563 L133.540839,45.6800625 C133.110538,38.8476563 130.275334,32.4790313 125.398591,27.597375 C120.517066,22.7109375 114.143833,19.8804375 107.292487,19.4549063 L111.777178,15.0035625 L111.78674,14.994 C115.276958,11.4893437 119.938551,9.5625 124.891792,9.5625 C129.845033,9.5625 134.501844,11.4893437 137.996843,14.994 C141.506186,18.4986563 143.437759,23.1555938 143.437759,28.1041875 C143.437759,33.0623438 141.515748,37.7192813 137.996843,41.2191563 Z M106.589662,39.6509063 L58.7784557,87.4634063 C56.9090375,89.332875 56.9090375,92.354625 58.7784557,94.2240938 C59.7059931,95.1564375 60.9347411,95.625 62.1587079,95.625 C63.3826748,95.625 64.6018606,95.1564375 65.5389602,94.2240938 L113.350167,46.4115938 C115.219585,44.542125 115.219585,41.520375 113.350167,39.6509063 C111.475967,37.7814375 108.45908,37.7814375 106.589662,39.6509063 Z" id="Shape"></path>
                </g>
                <path d="M0,183.586111 C3.19240448,191.645625 19.3154313,196.70087 48.3690804,198.751846 C91.9495542,201.828311 89.5617777,174.08913 57.1151091,177.218783 C24.6684405,180.348435 28.9626444,158.325166 49.4192858,158.040532 C63.0570468,157.850775 78.4914238,158.327302 95.7224167,159.470112" id="Path-8" stroke="#000000" stroke-width="7" stroke-linecap="round" stroke-linejoin="round"></path>
            </g>
        </g>
    </g>
</svg>