<?xml version="1.0" encoding="UTF-8"?>
<svg width="240px" height="177px" viewBox="0 0 240 177" version="1.1" xmlns="http://www.w3.org/2000/svg" xmlns:xlink="http://www.w3.org/1999/xlink">
    <!-- Generator: Sketch 47.1 (45422) - http://www.bohemiancoding.com/sketch -->
    <title>Group</title>
    <desc>Created with Sketch.</desc>
    <defs></defs>
    <g id="Page-1" stroke="none" stroke-width="1" fill="none" fill-rule="evenodd">
        <g id="Pop-up(заказать-звонок)" transform="translate(-269.000000, -364.000000)" fill="#FFFFFF">
            <g id="Group" transform="translate(269.000000, 351.000000)">
                <circle id="Oval-5-Copy" cx="9" cy="171" r="9"></circle>
                <circle id="Oval-5" cx="35.5" cy="170.5" r="4.5"></circle>
                <g id="speech-bubble" transform="translate(151.944122, 101.944122) rotate(-350.000000) translate(-151.944122, -101.944122) translate(63.944122, 13.944122)" fill-rule="nonzero">
                    <path d="M149.874036,25.730735 C115.565861,-8.57691168 59.9793176,-8.57691168 25.7076405,25.730735 C-7.28660459,58.7244719 -8.52753859,111.499852 22.0213365,145.989986 L22.933788,146.719936 C19.6124647,153.873445 13.9187675,162.705839 4.86724895,167.158534 C1.87440814,168.618434 2.56787125,173.071128 5.85269654,173.582093 C15.7436704,175.114988 29.9414153,173.399606 43.1902106,163.399292 L43.3727009,163.545282 C77.023911,183.326925 121.04057,178.801235 149.947032,149.895218 C184.182211,115.624069 184.182211,60.0018843 149.874036,25.730735 Z M116.733799,125.368901 C114.799402,127.339765 112.75551,129.16464 110.930608,131.2085 C108.266249,134.201295 104.908428,135.15023 101.11263,134.931245 C95.5649248,134.639265 90.4186985,132.777892 85.4914606,130.369058 C74.5055449,125.040423 65.1255439,117.631431 57.2784612,108.288072 C51.4752699,101.390045 46.6940242,93.871561 43.5186931,85.3676443 C41.9857746,81.2434272 40.8908329,77.0462151 41.2193154,72.5935206 C41.4383038,69.8562083 42.4602494,67.5203686 44.4676426,65.5860012 C46.6575262,63.5056439 48.7014174,61.3522916 50.8548029,59.2354368 C53.6651534,56.4616271 57.1689671,56.4981246 59.9793176,59.2354368 C61.7312244,60.9508192 63.4101351,62.6662015 65.1255439,64.3815839 C66.8044546,66.0604687 68.4833653,67.702856 70.1257779,69.3817409 C73.0456226,72.3380381 73.0456226,75.7688028 70.1257779,78.7251 C68.0453885,80.8419548 65.9649992,82.9588096 63.8116137,85.0026694 C63.2641429,85.5501318 63.1911467,85.9881018 63.4831312,86.6815542 C64.8700574,90.0393239 66.9139487,93.0321186 69.1768284,95.8059283 C73.7390857,101.426543 78.92181,106.4267 85.12648,110.295434 C86.4404101,111.134877 87.9003325,111.718837 89.2872587,112.485284 C89.9807218,112.886757 90.4916946,112.740767 91.0391655,112.156807 C93.1195549,110.003454 95.2729403,107.8866 97.3898277,105.769745 C100.200178,102.995935 103.703992,102.995935 106.477844,105.769745 C109.908662,109.164012 113.302981,112.558279 116.697301,115.989044 C119.617145,118.981839 119.617145,122.485598 116.733799,125.368901 Z M84.3600208,68.6517909 L85.4549625,60.8413267 C93.0100607,61.8997541 99.8716957,65.3305188 105.273408,70.7321482 C110.419635,75.8782953 113.777456,82.3383521 114.981892,89.455364 L107.207806,90.8057713 C106.258856,85.2946494 103.667494,80.2944923 99.6892054,76.3162652 C95.4919287,72.1190531 90.1997102,69.4547359 84.3600208,68.6517909 Z M127.683216,89.455364 C125.93131,79.2360649 121.113566,69.9657008 113.777456,62.5932065 C106.039868,54.8557373 96.2218899,49.9650727 85.3819664,48.4321779 L86.4769082,40.6217136 C98.9957423,42.3735935 110.383137,48.0307054 119.325161,57.0090896 C127.829209,65.5130062 133.413412,76.2797677 135.457303,88.1049566 L127.683216,89.455364 Z" id="Shape"></path>
                </g>
            </g>
        </g>
    </g>
</svg>