<?xml version="1.0" encoding="UTF-8"?>
<svg width="240px" height="177px" viewBox="0 0 240 177" version="1.1" xmlns="http://www.w3.org/2000/svg" xmlns:xlink="http://www.w3.org/1999/xlink">
    <!-- Generator: Sketch 48.2 (47327) - http://www.bohemiancoding.com/sketch -->
    <title>Group</title>
    <desc>Created with Sketch.</desc>
    <defs></defs>
    <g id="Artboard" stroke="none" stroke-width="1" fill="none" fill-rule="evenodd" transform="translate(-155.000000, -435.000000)">
        <g id="Group" transform="translate(155.000000, 422.000000)">
            <g id="speech-bubble-copy" transform="translate(151.944122, 101.944122) rotate(-350.000000) translate(-151.944122, -101.944122) translate(63.944122, 13.944122)" fill="#FFFFFF" fill-rule="nonzero">
                <path d="M149.874036,25.730735 C115.565861,-8.57691168 59.9793176,-8.57691168 25.7076405,25.730735 C-7.28660459,58.7244719 -8.52753859,111.499852 22.0213365,145.989986 L22.933788,146.719936 C19.6124647,153.873445 13.9187675,162.705839 4.86724895,167.158534 C1.87440814,168.618434 2.56787125,173.071128 5.85269654,173.582093 C15.7436704,175.114988 29.9414153,173.399606 43.1902106,163.399292 L43.3727009,163.545282 C77.023911,183.326925 121.04057,178.801235 149.947032,149.895218 C184.182211,115.624069 184.182211,60.0018843 149.874036,25.730735 Z" id="Shape"></path>
            </g>
            <g id="wallet" transform="translate(108.000000, 62.000000)" fill="#FB4848" fill-rule="nonzero">
                <path d="M91,25 L91,36 C94.3138,36 97,33.5372833 97,30.5 C97,27.46235 94.3138,25 91,25 Z" id="Shape"></path>
                <path d="M91.3333333,42.5272106 C84.0690444,42.5272106 78.7686333,42.5272106 71.5,42.5272106 C66.8055444,42.5272106 63,46.214736 63,50.7636053 C63,55.3124746 66.8055444,59 71.5,59 L91.3333333,59 C94.4630333,59 97,56.5413447 97,53.5090702 C97,50.743838 97,43.5410193 97,41 C95.3264444,41.9457211 93.4067667,42.5272106 91.3333333,42.5272106 Z" id="Shape"></path>
                <path d="M71.4691943,0 L5.68720379,0 C2.54616114,0 0,2.46235 0,5.5 C0,8.53728333 2.54616114,11 5.68720379,11 L80,11 L80,8.25 C80,3.69361667 76.1806635,0 71.4691943,0 Z" id="Shape"></path>
                <path d="M72.5739159,37.4397654 L86,37.4397654 L86,26.0903696 C86,21.3892606 82.1667212,17.5783227 77.4380531,17.5783227 L5.7079646,17.5783227 C3.61942035,17.5783227 1.68575221,16.9773721 0,16 L0,71.4879531 C0,76.189062 3.83327876,80 8.5619469,80 L77.4380531,80 C82.1667212,80 86,76.189062 86,71.4879531 L86,65.8132551 L71.7300885,65.8132551 C63.3702035,65.8132551 56.6652478,58.6277635 57.5364735,50.1433334 C58.2944912,42.7622538 65.1111327,37.4397654 72.5739159,37.4397654 Z M17.1238938,68.6506041 C17.1238938,70.2189015 15.8474027,71.4879531 14.2699115,71.4879531 C12.6924204,71.4879531 11.4159292,70.2189015 11.4159292,68.6506041 L11.4159292,62.9759062 C11.4159292,61.4076088 12.6924204,60.1385572 14.2699115,60.1385572 C15.8474027,60.1385572 17.1238938,61.4076088 17.1238938,62.9759062 L17.1238938,68.6506041 Z M17.1238938,51.6265103 C17.1238938,53.1948077 15.8474027,54.4638593 14.2699115,54.4638593 C12.6924204,54.4638593 11.4159292,53.1948077 11.4159292,51.6265103 L11.4159292,45.9518124 C11.4159292,44.383515 12.6924204,43.1144634 14.2699115,43.1144634 C15.8474027,43.1144634 17.1238938,44.383515 17.1238938,45.9518124 L17.1238938,51.6265103 Z M17.1238938,34.6024165 C17.1238938,36.1707138 15.8474027,37.4397654 14.2699115,37.4397654 C12.6924204,37.4397654 11.4159292,36.1707138 11.4159292,34.6024165 L11.4159292,28.9277185 C11.4159292,27.3594212 12.6924204,26.0903696 14.2699115,26.0903696 C15.8474027,26.0903696 17.1238938,27.3594212 17.1238938,28.9277185 L17.1238938,34.6024165 Z" id="Shape"></path>
            </g>
            <circle id="Oval-5-Copy-3" fill="#FFFFFF" cx="35.5" cy="170.5" r="4.5"></circle>
            <circle id="Oval-5-Copy" fill="#FFFFFF" cx="9" cy="171" r="9"></circle>
        </g>
    </g>
</svg>