<svg width="280" height="189" viewBox="0 0 280 189" xmlns="http://www.w3.org/2000/svg">
    <title>
        Group 2
    </title>
    <g fill="none" fill-rule="evenodd">
        <path d="M271.757 8.233C266.46 2.921 259.393 0 251.892 0c-7.502 0-14.559 2.917-19.861 8.224l-84.497 84.011a4.74 4.74 0 0 0-1.123 1.755l-19.125 52.594a4.78 4.78 0 0 0 5.9 6.206l47.567-14.593a4.776 4.776 0 0 0 1.98-1.185l89.03-89.032C277.078 42.677 280 35.61 280 28.104c-.005-7.502-2.921-14.563-8.243-19.87zm-96.502 121.65l-17.805 5.47c-1.037-3.046-2.653-5.743-4.857-7.947-1.918-1.908-4.14-3.39-6.484-4.595l8.148-22.405h10.996v9.563a4.777 4.777 0 0 0 4.781 4.781h8.439l-3.218 15.133zm70.378-69.3l-58.253 58.255 1.674-7.875a4.786 4.786 0 0 0-.966-4.002 4.77 4.77 0 0 0-3.71-1.773h-9.563v-9.563a4.783 4.783 0 0 0-4.78-4.781h-7.545l56.861-56.539.058.053a18.411 18.411 0 0 1 13.11-5.431c4.948 0 9.615 1.926 13.11 5.431 3.495 3.505 5.44 8.162 5.44 13.115 0 4.953-1.926 9.606-5.436 13.11zm19.364-19.364l-4.456 4.461c-.43-6.832-3.266-13.201-8.142-18.083-4.882-4.886-11.255-7.717-18.107-8.142l4.485-4.451.01-.01c3.49-3.505 8.152-5.431 13.105-5.431 4.953 0 9.61 1.926 13.105 5.431a18.41 18.41 0 0 1 5.44 13.11c0 4.958-1.921 9.615-5.44 13.115zm-31.407-1.568l-47.812 47.812a4.776 4.776 0 0 0 0 6.761 4.76 4.76 0 0 0 3.38 1.401 4.776 4.776 0 0 0 3.381-1.4l47.811-47.813a4.776 4.776 0 0 0 0-6.761 4.776 4.776 0 0 0-6.76 0z" fill="#000" fill-rule="nonzero"/>
        <path d="M12.148 192c-15.564-11.856-8.83-16.754 20.2-14.694 43.544 3.09 95.663 2.336 77.605-2.306-18.058-4.642-58.659-16.673-38.219-16.96 13.627-.19 29.049.289 46.266 1.437" stroke="#000" stroke-width="7" stroke-linecap="round" stroke-linejoin="round"/>
    </g>
</svg>
