<svg width="240" height="177" viewBox="0 0 240 177" xmlns="http://www.w3.org/2000/svg">
    <title>
        Group
    </title>
    <g transform="translate(0 -13)" fill="#FFF" fill-rule="evenodd">
        <circle cx="9" cy="171" r="9"/>
        <circle cx="35.5" cy="170.5" r="4.5"/>
        <path d="M223.691 51.365c-27.83-39.744-82.571-49.396-122.28-21.561-38.222 26.763-48.609 78.521-24.513 117.792l.772.877c-4.513 6.468-11.654 14.178-21.341 16.991-3.201.918-3.292 5.424-.145 6.497 9.474 3.227 23.754 4.004 38.538-3.544l.155.175c29.704 25.325 73.838 28.511 107.325 5.064 39.666-27.806 49.325-82.583 21.49-122.29zm-49.939 92.37c-2.247 1.605-4.577 3.047-6.729 4.743-3.143 2.485-6.615 2.836-10.315 1.961-5.413-1.25-10.158-3.977-14.592-7.205-9.893-7.155-17.844-16.08-23.95-26.645-4.517-7.8-7.92-16.035-9.57-24.961-.794-4.328-1.143-8.652-.047-12.98.691-2.657 2.103-4.78 4.416-6.337 2.518-1.668 4.905-3.434 7.393-5.145 3.25-2.243 6.694-1.599 8.986 1.585 1.427 1.993 2.783 3.974 4.174 5.961 1.362 1.945 2.73 3.854 4.056 5.793 2.363 3.418 1.767 6.797-1.622 9.201-2.416 1.724-4.833 3.447-7.308 5.086-.635.444-.782.863-.615 1.596.782 3.548 2.276 6.85 4.022 9.975 3.517 6.327 7.753 12.151 13.192 17.039 1.148 1.055 2.484 1.883 3.717 2.879.613.516 1.142.46 1.782-.02 2.423-1.759 4.911-3.47 7.364-5.187 3.249-2.243 6.7-1.635 8.95 1.579 2.789 3.938 5.542 7.87 8.29 11.838 2.355 3.455 1.747 6.905-1.594 9.244zM151.72 82.258l2.435-7.502c7.256 2.354 13.418 6.925 17.8 13.182 4.174 5.962 6.36 12.907 6.31 20.125l-7.891-.02c.022-5.593-1.661-10.967-4.888-15.575-3.405-4.863-8.154-8.405-13.766-10.21zm39.053 28.01c.049-10.368-3.086-20.334-9.03-28.868-6.277-8.964-15.096-15.485-25.505-18.877l2.434-7.502c12.025 3.9 22.257 11.448 29.504 21.843 6.898 9.851 10.528 21.424 10.487 33.424l-7.89-.02z" fill-rule="nonzero"/>
    </g>
</svg>
