<svg width="240" height="177" viewBox="0 0 240 177" xmlns="http://www.w3.org/2000/svg">
    <title>
        Group
    </title>
    <g transform="translate(0 -13)" fill="none" fill-rule="evenodd">
        <path d="M223.691 51.365c-27.83-39.744-82.571-49.396-122.28-21.561-38.222 26.763-48.609 78.521-24.513 117.792l.772.877c-4.513 6.468-11.654 14.178-21.341 16.991-3.201.918-3.292 5.424-.145 6.497 9.474 3.227 23.754 4.004 38.538-3.544l.155.175c29.704 25.325 73.838 28.511 107.325 5.064 39.666-27.806 49.325-82.583 21.49-122.29z" fill="#FFF" fill-rule="nonzero"/>
        <g fill="#FB4848" fill-rule="nonzero">
            <path d="M199 87v11c3.314 0 6-2.463 6-5.5 0-3.038-2.686-5.5-6-5.5z"/>
            <path d="M199.333 104.527H179.5c-4.694 0-8.5 3.688-8.5 8.237 0 4.548 3.806 8.236 8.5 8.236h19.833c3.13 0 5.667-2.459 5.667-5.49V103c-1.674.946-3.593 1.527-5.667 1.527z"/>
            <path d="M179.47 62h-65.783c-3.14 0-5.687 2.462-5.687 5.5 0 3.037 2.546 5.5 5.687 5.5H188v-2.75c0-4.556-3.82-8.25-8.53-8.25z"/>
            <path d="M180.574 99.44H194V88.09c0-4.7-3.833-8.512-8.562-8.512h-71.73c-2.089 0-4.022-.6-5.708-1.578v55.488c0 4.701 3.833 8.512 8.562 8.512h68.876c4.729 0 8.562-3.81 8.562-8.512v-5.675h-14.27c-8.36 0-15.065-7.185-14.194-15.67.758-7.38 7.575-12.703 15.038-12.703zm-55.45 31.21a2.844 2.844 0 0 1-2.854 2.838 2.844 2.844 0 0 1-2.854-2.837v-5.675a2.844 2.844 0 0 1 2.854-2.837 2.844 2.844 0 0 1 2.854 2.837v5.675zm0-17.023a2.844 2.844 0 0 1-2.854 2.837 2.844 2.844 0 0 1-2.854-2.837v-5.675a2.844 2.844 0 0 1 2.854-2.838 2.844 2.844 0 0 1 2.854 2.838v5.675zm0-17.025a2.844 2.844 0 0 1-2.854 2.838 2.844 2.844 0 0 1-2.854-2.838v-5.674a2.844 2.844 0 0 1 2.854-2.838 2.844 2.844 0 0 1 2.854 2.838v5.674z"/>
        </g>
        <circle fill="#FFF" cx="35.5" cy="170.5" r="4.5"/>
        <circle fill="#FFF" cx="9" cy="171" r="9"/>
    </g>
</svg>
