<?xml version="1.0" encoding="UTF-8"?>
<svg width="14px" height="11px" viewBox="0 0 14 11" version="1.1" xmlns="http://www.w3.org/2000/svg" xmlns:xlink="http://www.w3.org/1999/xlink">
    <!-- Generator: Sketch 47.1 (45422) - http://www.bohemiancoding.com/sketch -->
    <title>Shape</title>
    <desc>Created with Sketch.</desc>
    <defs></defs>
    <g id="Page-1" stroke="none" stroke-width="1" fill="none" fill-rule="evenodd">
        <g id="Стр.-курса_1" transform="translate(-240.000000, -1341.000000)" fill-rule="nonzero" fill="#FB4848">
            <g id="стоимость-курса" transform="translate(103.000000, 1042.000000)">
                <g id="курс(стандарт)" transform="translate(100.000000, 81.000000)">
                    <g id="check-mark-copy-5" transform="translate(37.000000, 218.000000)">
                        <path d="M6.33723551,10.4982977 C5.70250104,11.1672341 4.67258922,11.1672341 4.03816109,10.4982977 L0.476050852,6.74424748 C-0.158683617,6.07563395 -0.158683617,4.99022658 0.476050852,4.32161305 C1.11047898,3.65267668 2.1403908,3.65267668 2.77512527,4.32161305 L4.89744207,6.55796548 C5.05765738,6.72649096 5.31773922,6.72649096 5.47826087,6.55796548 L11.2248747,0.501702278 C11.8593029,-0.167234093 12.8892147,-0.167234093 13.5239491,0.501702278 C13.8287565,0.822933787 14,1.25877553 14,1.71301949 C14,2.16726344 13.8287565,2.60310519 13.5239491,2.9243367 L6.33723551,10.4982977 Z" id="Shape"></path>
                    </g>
                </g>
            </g>
        </g>
    </g>
</svg>