<?xml version="1.0" encoding="UTF-8"?>
<svg width="59px" height="58px" viewBox="0 0 59 58" version="1.1" xmlns="http://www.w3.org/2000/svg" xmlns:xlink="http://www.w3.org/1999/xlink">
    <!-- Generator: Sketch 48.2 (47327) - http://www.bohemiancoding.com/sketch -->
    <title>booms (1)-02-01</title>
    <desc>Created with Sketch.</desc>
    <defs></defs>
    <g id="Меню" stroke="none" stroke-width="1" fill="none" fill-rule="evenodd" transform="translate(-25.000000, -20.000000)">
        <g id="booms-(1)-02-01" transform="translate(25.000000, 20.000000)" fill="#ff1f39" fill-rule="nonzero">
            <path d="M52,8 C56.2822372,14.80625 58.6029334,23.890625 58.3819147,30.8375 C58.2437781,35.703125 57.332076,40.146875 55.8125724,44 C57.7188587,40.090625 58.8239521,35.45 58.9897161,30.303125 C59.1831075,23.46875 56.6413925,14.46875 52,8 Z" id="Shape"></path>
            <path d="M3.35708631,27.9575395 L3.89363263,26.5421884 C7.25410695,19.8617311 15.5564553,7.97278171 24,2 C14.8504733,7.03864997 5.36207519,19.77681 1.71920807,26.6554164 L1.18266175,28.0141535 C-3.16618738,38.770822 5.19263951,49.0462711 14.624559,54 C6.15277503,48.3952096 -0.624652175,38.4028307 3.35708631,27.9575395 Z" id="Shape"></path>
            <g id="Group" transform="translate(4.000000, 0.000000)">
                <path d="M25.3317204,29.7921951 C25.3032258,28.0663415 25.1322581,26.0858537 26.7849462,25.3219512 C28.7795699,24.4165854 29.605914,23.6809756 30.8596774,21.7287805 C32.5978495,19.0409756 33.4811828,15.3629268 29.4919355,14.7687805 C28.3236559,14.5990244 26.5569892,14.9668293 24.6763441,15.617561 C24.1349462,20.2858537 23.7075269,25.8029268 23.9069892,31.1502439 C25.2177419,30.782439 26.5284946,30.6409756 27.6397849,30.9804878 C29.9478495,31.6595122 30.6032258,33.6117073 28.4091398,35.1112195 C30.6602151,32.9892683 27.5827957,31.857561 24.0209677,33.102439 C24.305914,36.8653659 24.9327957,40.4868293 26.1010753,43.5990244 C31.2016129,42.9482927 33.9370968,39.355122 33.5096774,34.4039024 C33.1962366,27.0195122 26.0725806,27.5287805 25.3317204,29.7921951 Z" id="Shape"></path>
                <path d="M20.0317204,42.5521951 C19.6612903,40.8263415 19.3193548,38.817561 19.0629032,36.6390244 C17.2962366,38.9307317 17.8946237,41.222439 20.0317204,42.5521951 Z" id="Shape"></path>
                <path d="M31.8,0.169756098 C20.8295699,-0.113170732 6.55376344,18.1639024 1.88064516,26.9346341 L1.33924731,28.2926829 C-3.47634409,40.1473171 7.20913978,51.3795122 17.7806452,55.6234146 C37.1569892,63.4039024 52.2591398,50.8136585 52.9145161,31.0370732 C53.3419355,19.0692683 45.0784946,0.509268293 31.8,0.169756098 Z M42.4569892,35.5921951 C42.3430108,36.1863415 42.2005376,36.7804878 42.0295699,37.3746341 L42.0010753,37.5160976 C39.6930108,45.4663415 34.677957,48.0692683 30.0903226,48.635122 C29.4919355,48.72 28.694086,48.7765854 27.8107527,48.7482927 C26.7564516,48.7482927 25.7591398,48.635122 24.8473118,48.4936585 C20.744086,47.8712195 16.0139785,46.1170732 14.7602151,42.4107317 C13.705914,39.2702439 15.4155914,36.4692683 17.7521505,34.5736585 C18.0655914,34.3190244 18.4360215,34.0360976 18.8064516,33.7531707 C18.4360215,28.462439 18.6354839,22.6058537 20.0032258,17.7960976 C18.4075269,18.7297561 17.0967742,19.7482927 16.4129032,20.6819512 C15.9284946,21.3609756 15.6435484,22.6907317 16.6408602,23.0585366 C16.9543011,23.1717073 17.5526882,23.115122 17.7521505,22.8039024 C17.5811828,23.3980488 16.8688172,23.6243902 16.0709677,23.5395122 C13.6489247,23.0868293 14.2758065,20.5970732 15.216129,19.0126829 C16.583871,16.777561 18.6354839,14.8819512 20.9435484,13.3541463 L20.972043,13.2126829 C21.3994624,11.7131707 19.233871,11.7414634 18.5215054,12.2790244 C20.1741935,10.4965854 25.4172043,6.84682927 25.2747312,10.9209756 L25.2462366,11.0907317 C26.7849462,10.44 28.3236559,9.95902439 29.833871,9.59121951 C33.3672043,8.77073171 37.555914,9.76097561 39.066129,13.3541463 C40.4908602,17.0321951 38.011828,21.0214634 35.5612903,23.5960976 C37.0145161,23.3131707 38.4392473,23.3980488 39.7215054,24.2185366 C43.083871,26.4253659 43.1408602,32.0556098 42.4569892,35.5921951 Z" id="Shape"></path>
            </g>
        </g>
    </g>
</svg>